<svg width="634" height="634" viewBox="0 0 634 634" fill="none" xmlns="http://www.w3.org/2000/svg">
<g style="mix-blend-mode:overlay">
<path d="M527.94 553.52L527.349 552.831L528.53 551.454L522.332 544.469L522.725 547.223L523.02 555.685L523.316 556.078L524.693 555.193L525.283 555.881L521.446 559.325L520.856 558.636L521.84 557.456L514.166 548.699L512.887 549.585L512.296 548.896L516.232 545.452L516.822 546.141L515.74 547.322L522.037 554.406L521.643 551.848L521.348 543.19L520.856 542.698L519.38 543.682L518.79 542.993L522.725 539.549L523.316 540.238L522.233 541.419L529.908 550.175L531.187 549.388L531.777 550.077L527.94 553.52Z" fill="black"/>
<path d="M518.298 561.489C517.904 561.981 517.609 562.276 517.314 562.571C517.019 562.867 516.724 563.162 516.429 563.359C515.248 564.342 514.166 564.933 513.182 565.031C512.198 565.129 511.411 564.834 510.722 563.949C510.132 563.162 509.837 562.375 509.935 561.489C510.033 560.604 510.427 559.817 511.017 559.128C510.132 559.817 509.246 560.112 508.361 560.112C507.475 560.013 506.787 559.62 506.196 558.931C505.311 557.849 505.016 556.865 505.213 555.783C505.409 554.701 506.196 553.618 507.574 552.438C508.164 551.946 508.754 551.552 509.246 551.355C509.738 551.06 510.23 550.863 510.525 550.765C510.821 550.667 511.017 550.568 511.116 550.568L512.887 553.323L512.198 553.913L510.23 552.339C509.542 552.438 508.853 552.831 507.967 553.52C507.279 554.012 506.984 554.602 506.984 555.291C506.984 555.98 507.279 556.668 507.869 557.455C508.361 558.046 508.951 558.439 509.64 558.538C510.329 558.636 511.116 558.341 512.001 557.652L512.985 556.865L513.674 557.652L512.788 558.341C512.395 558.636 512.1 559.03 511.804 559.521C511.608 560.013 511.509 560.505 511.509 560.997C511.608 561.489 511.804 562.079 512.198 562.571C512.69 563.26 513.28 563.555 513.871 563.555C514.461 563.555 515.051 563.26 515.74 562.768C516.133 562.375 516.527 562.08 516.724 561.686C516.921 561.292 517.019 560.997 517.019 560.8L516.232 559.226L517.117 558.439L519.085 560.604C518.987 560.702 518.691 560.997 518.298 561.489Z" fill="black"/>
<path d="M505.016 570.738L506.393 570.049L506.983 570.836L504.917 572.312C504.622 572.607 504.13 572.902 503.638 573.296C503.146 573.689 502.851 573.984 502.654 574.181C501.277 575.165 500.096 575.657 499.211 575.657C498.325 575.657 497.538 575.263 496.948 574.378C496.456 573.689 496.161 572.902 496.259 572.115C496.259 571.328 496.653 570.541 497.243 569.95C496.259 570.639 495.374 571.033 494.488 570.934C493.603 570.836 492.816 570.442 492.225 569.557C491.438 568.573 491.242 567.491 491.537 566.31C491.832 565.13 492.717 563.949 494.39 562.768C494.783 562.473 495.079 562.276 495.472 562.08C496.259 561.588 496.751 561.194 496.948 561.096L498.916 559.62L499.408 560.407L498.227 561.489L505.016 570.738ZM494.882 563.457C493.898 564.244 493.308 564.933 493.111 565.72C492.914 566.507 493.209 567.196 493.701 567.983C494.292 568.77 494.882 569.163 495.571 569.262C496.259 569.36 497.046 569.065 497.932 568.376C498.916 567.589 499.604 567.196 499.9 566.9L496.653 562.375C496.259 562.473 495.767 562.867 494.882 563.457ZM499.604 568.475L498.817 569.065C498.129 569.557 497.735 570.147 497.637 570.836C497.538 571.525 497.735 572.213 498.325 572.902C498.817 573.591 499.408 573.984 499.998 574.083C500.588 574.181 501.375 573.886 502.261 573.197C502.654 572.902 502.95 572.607 503.343 572.312L503.638 572.017L500.588 567.786C500.391 567.983 500.096 568.179 499.604 568.475Z" fill="black"/>
<path d="M492.422 581.068L490.75 582.249L479.829 573.985L478.747 574.477L478.255 573.69L482.387 570.935L482.879 571.722L481.698 572.706L483.961 574.575L488.487 571.525L487.7 568.77L486.224 569.459L485.732 568.672L489.471 566.212L489.963 566.999L489.077 567.786L492.422 581.068ZM489.864 579.199L491.143 580.281L490.553 578.609L488.782 572.607L484.846 575.264L489.864 579.199Z" fill="black"/>
<path d="M475.893 575.854C477.074 575.854 478.058 576.149 479.042 576.838C480.026 577.526 480.911 578.412 481.6 579.691C482.288 580.871 482.682 582.052 482.78 583.331C482.879 584.61 482.584 585.692 481.993 586.676C481.403 587.66 480.616 588.546 479.534 589.234C478.747 589.726 477.664 590.218 476.385 590.612L475.795 590.808L474.221 587.857L475.303 587.168L476.976 588.939C477.172 588.939 477.566 588.939 477.959 588.841C478.353 588.742 478.845 588.447 479.435 588.152C480.124 587.758 480.616 587.168 480.911 586.48C481.206 585.791 481.305 584.905 481.108 584.02C480.911 583.134 480.518 582.052 479.927 581.068C479.337 580.084 478.648 579.199 477.861 578.609C477.074 578.018 476.287 577.526 475.5 577.428C474.713 577.33 473.827 577.428 473.04 577.92C472.45 578.215 472.056 578.609 471.86 578.805C471.663 579.002 471.466 579.396 471.368 579.691L471.663 581.659L470.581 582.15L469.597 579.691C469.793 579.592 470.089 579.297 470.482 578.904C470.777 578.51 471.072 578.215 471.466 577.92C471.761 577.625 472.253 577.33 472.745 577.034C473.631 576.247 474.713 575.854 475.893 575.854Z" fill="black"/>
<path d="M466.055 593.563C465.957 594.646 465.661 595.728 465.169 596.515C464.579 597.4 463.89 598.089 463.005 598.483C461.923 599.073 460.84 599.27 459.857 599.171C458.873 599.073 457.889 598.679 457.003 597.991C456.118 597.302 455.331 596.417 454.741 595.138C454.052 593.76 453.658 592.481 453.56 591.3C453.461 590.021 453.757 588.939 454.249 587.955C454.741 586.972 455.528 586.283 456.511 585.692C457.594 585.102 458.676 584.807 459.758 584.905C460.84 585.004 461.726 585.397 462.611 585.988C463.497 586.676 464.284 587.562 464.874 588.841L467.531 587.463L464.973 582.643L463.497 583.233L463.103 582.446L467.629 579.986L468.023 580.773L466.744 581.659L472.253 591.891L473.631 591.399L474.024 592.186L469.597 594.547L469.203 593.76L470.482 592.875L468.121 588.447L465.465 589.923C465.858 591.301 466.055 592.481 466.055 593.563ZM464.284 594.941C464.382 593.662 463.989 592.186 463.005 590.317C462.119 588.742 461.136 587.562 460.053 586.972C458.971 586.381 457.889 586.283 456.708 586.873C455.626 587.463 455.134 588.349 455.036 589.53C454.937 590.71 455.429 592.284 456.413 594.154C457.299 595.728 458.184 596.908 459.266 597.499C460.348 598.187 461.431 598.188 462.415 597.597C463.595 597.105 464.186 596.22 464.284 594.941Z" fill="black"/>
<path d="M445.295 598.286C444.607 597.892 443.623 597.4 442.541 596.711C441.754 596.22 441.262 595.826 440.868 595.629C440.475 595.433 440.179 595.334 439.983 595.334L439.294 595.432L438.9 594.645L440.966 593.662C441.262 593.563 441.655 593.662 442.147 593.957C442.639 594.252 443.426 594.744 444.312 595.432C445.394 596.22 446.181 596.712 446.87 597.105C447.46 597.499 447.952 597.597 448.345 597.4L449.428 596.908L447.165 592.087L445.591 592.579L445.197 591.792L449.821 589.628L450.215 590.513L448.936 591.3L453.855 601.828L455.331 601.434L455.724 602.32L451.199 604.386L450.805 603.303L452.084 602.418L449.821 597.499L448.345 598.187L447.165 604.681L448.641 604.189L449.034 605.074L444.902 607.042L444.508 606.157L445.787 605.369L447.165 598.679C446.673 598.778 445.984 598.581 445.295 598.286Z" fill="black"/>
<path d="M436.146 596.416C437.228 596.613 438.113 597.105 438.9 597.99C439.687 598.777 440.376 599.86 440.966 601.139C441.557 602.418 441.754 603.697 441.655 604.976C441.557 606.156 441.163 607.239 440.573 608.124C439.884 609.01 439.097 609.698 437.917 610.19C436.146 610.977 434.473 610.977 433.096 610.19C431.718 609.403 430.538 608.124 429.75 606.058C429.16 604.681 428.963 603.402 429.062 602.221C429.16 600.942 429.554 599.958 430.144 598.974C430.833 598.089 431.718 597.4 432.8 596.908C433.981 596.416 435.063 596.219 436.146 596.416ZM439.687 606.648C439.884 605.369 439.687 603.894 438.9 601.926C438.212 600.155 437.326 598.974 436.244 598.187C435.162 597.4 434.079 597.302 432.997 597.794C431.915 598.286 431.226 599.073 431.029 600.352C430.833 601.631 431.029 603.205 431.817 605.074C432.505 606.845 433.391 608.026 434.473 608.714C435.457 609.403 436.539 609.6 437.72 609.108C438.802 608.813 439.491 607.927 439.687 606.648Z" fill="black"/>
<path d="M428.668 612.453L430.144 612.158L430.439 613.044L428.078 613.929C427.684 614.027 427.192 614.323 426.602 614.519C426.012 614.815 425.618 614.913 425.421 615.011C423.847 615.602 422.568 615.798 421.683 615.503C420.797 615.208 420.207 614.618 419.813 613.634C419.518 612.847 419.518 611.961 419.715 611.273C419.912 610.584 420.502 609.895 421.289 609.403C420.207 609.797 419.223 609.895 418.338 609.6C417.452 609.305 416.862 608.616 416.567 607.731C416.173 606.55 416.173 605.468 416.764 604.386C417.354 603.303 418.534 602.418 420.502 601.729C420.896 601.532 421.289 601.434 421.781 601.336C422.667 601.041 423.257 600.844 423.454 600.844L425.815 599.958L426.11 600.844L424.733 601.532L428.668 612.453ZM420.896 602.713C419.715 603.107 418.928 603.697 418.633 604.386C418.239 605.074 418.239 605.861 418.633 606.747C418.928 607.632 419.42 608.223 420.01 608.419C420.601 608.616 421.486 608.616 422.47 608.223C423.651 607.829 424.438 607.534 424.733 607.337L422.863 602.123C422.47 602.123 421.88 602.32 420.896 602.713ZM424.142 608.813L423.159 609.207C422.372 609.502 421.781 609.994 421.584 610.584C421.388 611.174 421.388 611.961 421.683 612.748C421.978 613.536 422.372 614.126 422.962 614.323C423.552 614.519 424.339 614.519 425.323 614.126C425.717 613.929 426.209 613.831 426.602 613.536L426.996 613.339L425.225 608.419C424.93 608.518 424.634 608.616 424.142 608.813Z" fill="black"/>
<path d="M401.022 622.686L400.726 621.8L402.202 621.111L398.857 609.994L397.086 610.289L396.791 609.403L401.809 607.928L402.104 608.813L400.628 609.403L403.973 620.619L409.68 618.947L406.334 607.731L404.662 608.026L404.367 607.141L409.384 605.665L409.68 606.55L408.302 607.141L411.647 618.258L413.222 618.061L413.517 618.947L401.022 622.686Z" fill="black"/>
<path d="M393.348 611.076C394.331 611.469 395.217 612.06 395.906 613.044C396.594 613.929 397.086 615.11 397.48 616.487C397.775 617.865 397.873 619.144 397.578 620.324C397.283 621.505 396.791 622.489 396.004 623.276C395.217 624.063 394.233 624.653 393.151 624.948C391.282 625.44 389.707 625.145 388.428 624.26C387.149 623.276 386.264 621.8 385.674 619.635C385.28 618.258 385.28 616.881 385.575 615.7C385.87 614.519 386.362 613.437 387.149 612.65C387.936 611.863 388.92 611.273 390.101 610.977C391.282 610.682 392.364 610.682 393.348 611.076ZM395.414 621.702C395.807 620.521 395.807 618.947 395.315 616.979C394.823 615.208 394.135 613.831 393.249 612.945C392.364 612.06 391.282 611.765 390.101 612.06C388.92 612.355 388.133 613.142 387.74 614.323C387.346 615.503 387.346 617.176 387.838 619.143C388.33 621.013 388.92 622.292 389.904 623.177C390.79 624.063 391.872 624.358 393.052 624.063C394.135 623.571 394.922 622.882 395.414 621.702Z" fill="black"/>
<path d="M379.377 618.848C379.278 617.078 379.377 615.799 379.77 614.815C379.967 614.323 380.164 613.929 380.459 613.634C380.754 613.339 381.148 613.142 381.541 613.044C382.132 612.945 382.525 612.847 382.82 612.847L383.214 614.323C382.919 614.323 382.427 614.421 381.836 614.519C381.64 614.519 381.443 614.618 381.246 614.815C381.049 615.011 380.951 615.208 380.853 615.405C380.164 617.078 380.361 620.127 381.246 624.555L381.541 626.031L383.706 625.834L383.902 626.719L373.277 628.884L373.08 627.998L374.753 627.408L372.49 615.995L370.62 616.192L370.424 615.307L376.032 614.224L376.228 615.11L374.359 615.7L376.622 627.113L380.361 626.326L380.065 624.653C379.77 622.489 379.475 620.521 379.377 618.848Z" fill="black"/>
<path d="M369.637 628.392H371.211L371.309 629.278L361.864 630.753L361.175 627.9L362.258 627.703L363.045 629.376L367.669 628.786L366.882 623.571L363.832 624.063V625.637L362.848 625.834L362.159 621.603L363.143 621.407L363.635 622.981L366.685 622.587L365.8 617.078L360.585 618.061L359.995 620.521L358.814 620.324V616.979L369.046 615.405L369.145 616.291L367.669 616.684L369.637 628.392Z" fill="black"/>
<path d="M354.288 630.753L357.437 630.261L357.633 626.326L358.814 626.227L359.109 631.245L347.5 632.524L346.713 627.605L347.893 627.506L348.976 631.343L352.222 631.048L350.845 619.34L348.188 619.439L348.09 618.553L355.174 617.766L355.272 618.652L352.911 619.143L354.288 630.753Z" fill="black"/>
<path d="M339.039 625.342L339.924 625.244C340.219 625.047 340.514 624.555 340.711 623.965C340.908 623.374 341.302 622.587 341.597 621.702C341.892 620.816 342.187 620.128 342.384 619.636C342.581 619.144 342.777 618.947 342.974 618.947L345.532 618.75L345.63 619.636L344.942 619.931C344.745 620.029 344.548 620.128 344.351 620.521C344.155 620.816 343.86 621.407 343.564 622.095C343.171 622.981 342.876 623.67 342.581 624.161C342.285 624.752 341.99 625.047 341.597 625.342C342.482 625.539 343.171 625.932 343.663 626.523C344.155 627.113 344.45 627.9 344.548 628.884C344.647 630.36 344.253 631.442 343.466 632.032C342.581 632.623 341.4 633.016 339.727 633.115C339.334 633.115 338.94 633.115 338.35 633.115C337.76 633.115 337.268 633.115 336.973 633.115L334.316 633.311L334.218 632.426L335.792 632.131L335.005 620.521L333.234 620.423L333.135 619.537L338.645 619.144L338.743 620.029L336.973 620.324L337.366 625.244L339.039 625.342ZM338.252 632.229C338.842 632.229 339.334 632.229 339.727 632.229C340.711 632.131 341.4 631.934 341.892 631.442C342.384 630.95 342.581 630.261 342.482 629.179C342.384 628.195 342.089 627.408 341.498 626.916C340.908 626.424 340.219 626.228 339.235 626.228C338.252 626.326 337.563 626.326 337.268 626.424L337.661 632.131L338.252 632.229Z" fill="black"/>
<path d="M327.429 632.721L330.676 632.524L331.168 628.589H332.447L332.25 633.606L320.64 633.901L320.247 628.884H321.427L322.116 632.819H325.363L324.969 621.013L322.313 620.915V620.029L329.495 619.832V620.718L327.035 621.013L327.429 632.721Z" fill="black"/>
<path d="M311.786 620.718C312.77 621.308 313.458 622.194 313.95 623.276C314.442 624.358 314.639 625.637 314.639 627.113C314.639 628.49 314.245 629.769 313.655 630.753C313.065 631.835 312.179 632.622 311.195 633.213C310.113 633.803 309.031 634 307.752 634C306.768 634 305.686 633.803 304.308 633.508L303.718 633.41L304.013 630.064H305.292L305.686 632.426C305.883 632.622 306.178 632.721 306.571 632.819C306.965 632.918 307.555 633.016 308.145 633.016C308.932 633.016 309.621 632.819 310.31 632.426C310.9 632.032 311.491 631.343 311.786 630.458C312.179 629.572 312.376 628.49 312.376 627.31C312.376 626.129 312.278 625.047 311.982 624.063C311.687 623.079 311.195 622.292 310.605 621.702C310.015 621.111 309.228 620.816 308.244 620.816C307.555 620.816 307.063 620.816 306.67 620.915C306.276 621.013 305.981 621.21 305.784 621.406L304.997 623.177L303.816 622.981L304.308 620.324C304.603 620.324 304.997 620.226 305.489 620.127C305.981 620.029 306.374 619.931 306.768 619.832C307.162 619.734 307.752 619.734 308.342 619.734C309.621 619.734 310.802 620.029 311.786 620.718Z" fill="black"/>
<path d="M296.044 633.213L296.142 632.328L298.011 632.229L298.7 622.882L297.028 625.047L291.223 631.245V631.737L292.895 632.032L292.797 632.918L287.681 632.524L287.779 631.639L289.255 631.54L290.042 619.931L288.468 619.636L288.566 618.75L293.781 619.144L293.682 620.029L292.01 620.128L291.321 629.573L292.895 627.507L298.897 621.21V620.521L297.126 620.226L297.224 619.341L302.439 619.734L302.34 620.62L300.766 620.718L299.979 632.328L301.455 632.623L301.357 633.508L296.044 633.213Z" fill="black"/>
<path d="M275.776 631.343L276.17 626.424L277.449 626.522L277.547 630.36L281.581 630.95L282.958 619.242L279.712 618.652L279.81 617.766L287.091 618.553L286.992 619.439H284.926L283.647 630.95L285.615 631.442L285.516 632.327L275.776 631.343Z" fill="black"/>
<path d="M272.726 629.769L274.104 630.261L274.005 631.147L268.988 630.36L269.086 629.474H270.66L271.447 624.555L264.954 623.571L264.167 628.49L265.642 628.982L265.544 629.868L260.625 629.081L260.723 628.195H262.199L263.97 616.684L262.494 616.291L262.592 615.405L267.512 616.192L267.413 617.078L265.839 616.979L264.954 622.39L271.447 623.374L272.333 617.963L270.759 617.57L270.857 616.684L275.973 617.471L275.875 618.357L274.399 618.258L272.726 629.769Z" fill="black"/>
<path d="M253.836 627.703L251.868 627.31L249.999 613.732L248.917 613.339L249.114 612.453L253.934 613.437L253.738 614.323L252.163 614.224L252.459 617.078L257.771 618.16L259.149 615.602L257.575 615.11L257.771 614.224L262.101 615.11L261.904 615.995L260.723 615.897L253.836 627.703ZM253.246 624.555L253.344 626.227L254.131 624.653L257.181 619.144L252.557 618.16L253.246 624.555Z" fill="black"/>
<path d="M243.21 616.291C243.899 614.716 244.588 613.536 245.277 612.749C245.67 612.355 245.965 612.158 246.359 611.962C246.752 611.863 247.146 611.863 247.638 611.962C248.228 612.06 248.622 612.257 248.917 612.355L248.72 613.831C248.425 613.733 248.031 613.634 247.343 613.437C247.146 613.339 246.949 613.339 246.752 613.437C246.556 613.536 246.359 613.634 246.162 613.831C244.883 615.012 243.702 617.865 242.522 622.292L242.128 623.768L244.194 624.555L243.998 625.441L233.569 622.784L233.765 621.899L235.536 622.095L238.389 610.781L236.619 610.191L236.815 609.305L242.423 610.683L242.227 611.568L240.357 611.273L237.504 622.489L241.144 623.374L241.538 621.702C241.931 619.734 242.522 617.865 243.21 616.291Z" fill="black"/>
<path d="M214.383 617.078L214.678 616.192L216.449 616.487L219.893 605.37L218.319 604.681L218.614 603.796L223.828 605.468L223.533 606.354L221.861 606.059L218.417 617.176L219.991 617.865L219.696 618.75L214.383 617.078ZM227.173 615.307C225.698 614.815 224.714 614.126 224.123 613.241C223.533 612.355 223.435 611.273 223.828 609.994C224.222 608.617 225.009 607.731 226.091 607.239C227.173 606.747 228.452 606.747 229.928 607.141C230.125 607.239 230.322 607.239 230.519 607.338C230.715 607.436 230.912 607.534 231.109 607.534C231.798 607.829 232.388 608.026 232.88 608.223L235.34 609.01L235.044 609.896L233.47 609.6L230.027 620.718L231.404 621.407L231.109 622.292L225.993 620.718L226.288 619.833L228.157 620.128L229.436 615.996L227.173 615.307ZM230.912 608.617C230.715 608.518 230.42 608.42 229.928 608.321C228.944 608.026 228.059 608.026 227.37 608.42C226.682 608.813 226.19 609.502 225.796 610.584C225.501 611.568 225.501 612.355 225.894 613.044C226.288 613.733 226.977 614.225 227.961 614.52L229.83 615.11L231.699 609.109C231.404 608.813 231.207 608.715 230.912 608.617Z" fill="black"/>
<path d="M206.611 612.945L207.89 613.732L207.595 614.618L202.872 612.749L203.167 611.863L204.741 612.257L206.611 607.534L200.511 605.173L198.642 609.895L199.921 610.683L199.625 611.568L195.001 609.699L195.296 608.813L196.772 609.108L201.003 598.286L199.724 597.597L200.019 596.712L204.741 598.581L204.446 599.466L202.97 599.073L201.003 604.091L207.103 606.452L209.07 601.434L207.595 600.647L207.89 599.762L212.711 601.631L212.416 602.516L210.94 602.123L206.611 612.945Z" fill="black"/>
<path d="M188.606 606.944L186.737 606.058L187.819 592.383L186.835 591.694L187.229 590.907L191.755 592.874L191.361 593.76L189.885 593.268L189.59 596.121L194.608 598.384L196.575 596.22L195.198 595.432L195.592 594.645L199.625 596.416L199.232 597.203L198.051 596.908L188.606 606.944ZM188.803 603.795L188.606 605.468L189.688 604.09L193.821 599.368L189.492 597.4L188.803 603.795Z" fill="black"/>
<path d="M175.029 599.171L176.702 600.352L176.308 601.139L171.881 598.778L173.455 590.12L174.045 587.758L172.471 589.628L166.273 595.826L161.944 593.563L162.337 592.776L164.305 593.563L168.437 582.642L167.06 581.658L167.453 580.871L172.176 583.429L171.782 584.216L170.208 583.626L167.06 591.399L165.682 594.744L167.65 592.776L175.029 585.594L176.111 586.184L174.635 595.531L173.947 599.171L175.914 596.121L180.539 589.037L178.964 588.054L179.358 587.266L183.687 589.529L183.293 590.316L181.818 589.726L175.029 599.171Z" fill="black"/>
<path d="M155.647 589.923L153.876 588.841L156.631 575.46L155.745 574.673L156.237 573.886L160.468 576.444L159.976 577.231L158.5 576.641L157.811 579.494L162.534 582.249L164.698 580.281L163.419 579.297L163.911 578.51L167.748 580.773L167.256 581.56L166.174 581.167L155.647 589.923ZM156.237 586.775L155.843 588.447L157.122 587.267L161.845 583.036L157.713 580.577L156.237 586.775Z" fill="black"/>
<path d="M147.481 583.429L148.563 584.413L148.071 585.2L146.005 583.823C145.611 583.626 145.218 583.331 144.824 583.134C144.234 582.839 143.644 582.445 143.152 582.15C141.676 581.166 140.79 580.183 140.495 579.199C140.2 578.215 140.495 577.231 141.184 576.05C141.774 575.263 142.365 574.575 143.152 574.279C143.939 573.886 144.824 573.787 145.71 573.886C146.595 573.984 147.481 574.378 148.366 574.968C148.661 575.165 148.957 575.362 149.252 575.558C149.547 575.755 149.744 575.952 149.842 575.952L152.105 572.509L150.039 570.934L150.531 570.147L155.647 573.492L155.155 574.279L153.777 573.591L147.481 583.429ZM147.874 575.854C147.087 575.362 146.202 575.165 145.415 575.263C144.628 575.362 143.742 576.05 143.053 577.231C142.463 578.117 142.266 578.904 142.463 579.592C142.66 580.281 143.25 580.97 144.136 581.56C144.431 581.757 144.824 581.954 145.218 582.15C145.415 582.249 145.611 582.347 145.71 582.445L149.35 576.936C149.055 576.739 148.563 576.346 147.874 575.854Z" fill="black"/>
<path d="M143.152 566.114C143.644 567.196 143.742 568.278 143.447 569.459C143.25 570.639 142.66 571.82 141.873 573.001C141.086 574.181 140.102 574.968 139.02 575.46C137.937 575.952 136.757 576.247 135.576 576.051C134.395 575.952 133.313 575.559 132.231 574.772C131.444 574.181 130.558 573.394 129.673 572.41L129.279 571.918L131.345 569.262L132.329 569.951L131.345 572.115C131.444 572.312 131.542 572.607 131.837 573.001C132.132 573.296 132.526 573.689 133.018 574.083C133.707 574.575 134.395 574.772 135.182 574.772C135.97 574.772 136.757 574.476 137.544 573.985C138.331 573.493 139.118 572.706 139.807 571.722C140.495 570.738 140.987 569.852 141.282 568.868C141.578 567.885 141.676 566.999 141.479 566.212C141.282 565.425 140.79 564.736 140.102 564.146C139.61 563.752 139.118 563.556 138.724 563.359C138.331 563.162 138.036 563.162 137.74 563.26L136.068 564.343L135.182 563.556L137.052 561.686C137.249 561.785 137.642 561.981 138.134 562.178C138.626 562.375 139.02 562.473 139.413 562.67C139.807 562.867 140.2 563.162 140.79 563.457C141.971 564.146 142.758 565.031 143.152 566.114Z" fill="black"/>
<path d="M108.913 556.078L109.504 555.389L110.98 556.472L117.178 549.388L114.521 550.077L106.159 551.454L105.863 551.848L106.946 553.127L106.355 553.815L102.518 550.372L103.109 549.683L104.388 550.47L112.062 541.714L110.98 540.533L111.57 539.844L115.505 543.288L114.915 543.977L113.538 542.993L107.241 550.175L109.7 549.486L118.26 548.109L118.752 547.617L117.571 546.338L118.162 545.649L122.097 549.093L121.507 549.781L120.228 548.896L112.554 557.652L113.538 558.833L112.947 559.522L108.913 556.078Z" fill="black"/>
<path d="M99.7635 547.519C99.2716 547.223 98.8781 546.928 98.4845 546.731C98.091 546.535 97.8942 546.24 97.599 546.043C96.5168 544.961 95.8281 543.977 95.5329 542.993C95.2378 542.009 95.5329 541.222 96.32 540.435C97.0087 539.746 97.7958 539.353 98.6813 539.353C99.5668 539.353 100.354 539.648 101.141 540.14C100.354 539.353 99.8619 538.467 99.8619 537.582C99.8619 536.696 100.157 535.909 100.747 535.22C101.633 534.236 102.715 533.745 103.797 533.843C104.88 533.941 106.06 534.532 107.438 535.811C107.93 536.303 108.421 536.795 108.717 537.286C109.012 537.778 109.307 538.172 109.504 538.467C109.701 538.762 109.799 538.959 109.799 539.057L107.339 541.123L106.651 540.435L107.93 538.369C107.733 537.68 107.241 536.991 106.454 536.303C105.863 535.712 105.175 535.417 104.584 535.515C103.994 535.614 103.207 536.007 102.518 536.696C102.026 537.286 101.731 537.877 101.633 538.565C101.633 539.254 102.026 540.041 102.813 540.73L103.797 541.615L103.109 542.402L102.322 541.615C101.928 541.222 101.534 541.025 101.043 540.828C100.551 540.632 100.059 540.632 99.5668 540.73C99.0748 540.828 98.5829 541.123 98.091 541.615C97.5007 542.206 97.3039 542.796 97.3039 543.386C97.4023 543.977 97.6974 544.567 98.2878 545.157C98.6813 545.551 99.0748 545.846 99.4684 545.944C99.8619 546.141 100.157 546.141 100.354 546.043L101.83 545.059L102.715 545.846L100.846 548.01C100.649 548.01 100.354 547.814 99.7635 547.519Z" fill="black"/>
<path d="M88.941 535.515L89.8264 536.794L89.1377 537.385L87.3668 535.515C87.0716 535.22 86.6781 534.827 86.1862 534.433C85.6942 534.04 85.3991 533.744 85.2023 533.548C84.0217 532.269 83.4313 531.186 83.2346 530.301C83.1362 529.415 83.4313 528.628 84.2184 527.841C84.9071 527.251 85.5958 526.857 86.3829 526.857C87.17 526.759 87.9571 527.054 88.6458 527.546C87.8587 526.661 87.3668 525.775 87.3668 524.89C87.3668 524.004 87.662 523.217 88.449 522.528C89.3345 521.643 90.4168 521.249 91.5974 521.446C92.778 521.545 94.057 522.332 95.5328 523.906C95.828 524.201 96.1231 524.594 96.4183 524.89C97.0086 525.578 97.4022 526.07 97.5989 526.169L99.2715 527.94L98.5828 528.53L97.4022 527.546L88.941 535.515ZM90.5151 529.809L89.8264 529.022C89.2361 528.432 88.6458 528.038 87.9571 528.038C87.2684 528.038 86.6781 528.333 85.9894 528.924C85.3991 529.514 85.0055 530.104 85.0055 530.694C85.0055 531.285 85.3991 531.973 86.0878 532.761C86.3829 533.056 86.7765 533.449 87.0716 533.744L87.3668 534.04L91.2038 530.498C91.2038 530.498 90.9087 530.203 90.5151 529.809ZM94.9425 524.496C94.057 523.611 93.2699 523.119 92.4829 523.02C91.6958 522.922 91.0071 523.217 90.3184 523.906C89.6297 524.594 89.2361 525.185 89.3345 525.874C89.4329 526.562 89.728 527.251 90.5151 528.038C91.4006 528.923 91.8925 529.514 92.1877 529.809L96.2215 525.972C96.0248 525.775 95.6312 525.283 94.9425 524.496Z" fill="black"/>
<path d="M77.1348 524.299L75.7573 522.725L82.546 510.919L81.9557 509.935L82.6444 509.345L85.8911 513.083L85.2024 513.674L84.0218 512.591L82.4476 515.051L85.9895 519.183L88.6459 518.003L87.7604 516.625L88.4492 516.035L91.3023 519.38L90.6136 519.97L89.7282 519.183L77.1348 524.299ZM78.6105 521.446L77.6267 522.922L79.2008 522.135L85.0056 519.675L81.8573 516.035L78.6105 521.446Z" fill="black"/>
<path d="M80.1846 507.181C80.283 508.263 80.0863 509.443 79.5944 510.427C79.1024 511.411 78.2169 512.493 77.1347 513.379C76.0525 514.264 74.8718 514.756 73.6912 514.953C72.5106 515.15 71.3299 515.051 70.2477 514.658C69.1654 514.264 68.1815 513.477 67.3945 512.493C66.8041 511.706 66.2138 510.722 65.6235 509.542L65.3284 508.951L68.0832 506.984L68.8702 507.968L67.2961 509.837C67.2961 510.034 67.3945 510.427 67.5912 510.821C67.788 511.214 68.0832 511.706 68.4767 512.198C68.9686 512.789 69.5589 513.28 70.346 513.477C71.1331 513.674 71.9202 513.674 72.8057 513.379C73.6912 513.084 74.675 512.592 75.6589 511.805C76.5444 511.116 77.3315 510.329 77.9218 509.443C78.5121 508.558 78.8072 507.771 78.8072 506.885C78.9056 506 78.6105 505.213 78.0202 504.524C77.6266 504.032 77.2331 503.639 76.9379 503.442C76.6428 503.245 76.3476 503.048 75.9541 503.048L73.9863 503.54L73.396 502.556L75.7573 501.277C75.954 501.474 76.2492 501.769 76.6428 502.064C77.0363 502.36 77.4298 502.556 77.725 502.852C78.0202 503.147 78.4137 503.54 78.8072 504.032C79.5943 505.016 80.0863 506.098 80.1846 507.181Z" fill="black"/>
<path d="M61.3929 499.604C60.3107 499.703 59.2284 499.506 58.3429 499.112C57.4574 498.719 56.6703 498.03 56.08 497.145C55.3913 496.161 54.9978 495.177 54.9978 494.095C54.9978 493.013 55.1946 492.029 55.7849 491.143C56.3752 490.159 57.1623 489.372 58.2445 488.585C59.5236 487.7 60.7042 487.208 61.8848 486.913C63.0655 486.716 64.2461 486.814 65.2299 487.208C66.2138 487.601 67.0993 488.29 67.788 489.175C68.4767 490.159 68.8702 491.242 68.9686 492.324C69.067 493.406 68.7718 494.39 68.1815 495.374C67.5912 496.358 66.8041 497.243 65.7219 498.03L67.4928 500.49L71.9202 497.341L71.1331 495.866L71.9202 495.374L74.8718 499.604L74.0847 500.096L73.0024 498.916L63.5574 505.606L64.2461 506.983L63.459 507.475L60.5074 503.343L61.2945 502.851L62.3768 504.032L66.509 501.08L64.738 498.621C63.6558 499.211 62.4751 499.604 61.3929 499.604ZM59.8187 498.129C61.0977 498.129 62.5735 497.538 64.2461 496.259C65.7219 495.177 66.7057 494.095 67.1977 492.914C67.6896 491.733 67.5912 490.651 66.9025 489.667C66.2138 488.684 65.2299 488.29 64.0493 488.29C62.8687 488.29 61.3929 488.979 59.7203 490.159C58.2445 491.242 57.2607 492.324 56.7687 493.406C56.2768 494.587 56.3752 495.571 57.0639 496.554C57.6542 497.637 58.6381 498.129 59.8187 498.129Z" fill="black"/>
<path d="M54.2107 479.731C54.5059 478.944 54.8994 477.96 55.4897 476.779C55.8833 475.992 56.1784 475.402 56.3752 474.91C56.572 474.516 56.572 474.221 56.572 474.024L56.3752 473.336L57.1623 472.844L58.4413 474.811C58.6381 475.008 58.5397 475.5 58.3429 475.992C58.1462 476.582 57.7526 477.369 57.1623 478.353C56.572 479.534 56.08 480.419 55.7849 481.108C55.4897 481.797 55.4897 482.289 55.6865 482.584L56.2768 483.568L60.8026 480.715L60.1139 479.14L60.901 478.648L63.6558 482.978L62.8687 483.469L61.8848 482.289L52.0462 488.487L52.6365 489.865L51.8494 490.356L49.193 486.126L49.9801 485.634L50.964 486.815L55.4897 483.961L54.6042 482.584L48.0124 482.289L48.7011 483.765L47.914 484.257L45.4543 480.321L46.2414 479.829L47.2253 480.911L54.0139 481.403C53.8172 481.108 53.9155 480.419 54.2107 479.731Z" fill="black"/>
<path d="M54.8012 470.384C54.7028 471.466 54.3092 472.45 53.6205 473.336C52.9318 474.221 51.948 475.106 50.7673 475.795C49.4883 476.484 48.3077 476.877 47.1271 476.976C45.9464 477.074 44.8642 476.779 43.8803 476.287C42.8965 475.795 42.1094 475.008 41.5191 473.926C40.5352 472.253 40.3384 470.679 40.9287 469.105C41.519 467.629 42.6997 466.35 44.569 465.268C45.848 464.579 47.1271 464.186 48.3077 464.087C49.4883 463.989 50.6689 464.284 51.6528 464.776C52.6367 465.268 53.4238 466.055 54.0141 467.137C54.6044 468.219 54.8996 469.302 54.8012 470.384ZM45.061 475.205C46.34 475.303 47.8158 474.811 49.5867 473.827C51.2593 472.942 52.3415 471.86 52.9318 470.777C53.5222 469.695 53.5222 468.515 52.9318 467.531C52.3415 466.448 51.3577 465.957 50.0787 465.858C48.7996 465.76 47.2254 466.252 45.4545 467.236C43.7819 468.121 42.6997 469.203 42.1094 470.286C41.5191 471.368 41.5191 472.45 42.1094 473.532C42.8965 474.516 43.8803 475.106 45.061 475.205Z" fill="black"/>
<path d="M37.9771 464.973L38.4691 466.448L37.682 466.842L36.5013 464.579C36.3046 464.186 36.0094 463.694 35.7143 463.202C35.4191 462.71 35.1239 462.316 35.0256 462.021C34.2385 460.447 33.9433 459.266 34.0417 458.381C34.1401 457.495 34.7304 456.807 35.6159 456.315C36.403 455.921 37.1901 455.823 37.9771 455.921C38.7642 456.118 39.4529 456.511 40.0433 457.2C39.4529 456.118 39.2562 455.232 39.4529 454.347C39.6497 453.461 40.24 452.773 41.1255 452.379C42.2078 451.789 43.3884 451.69 44.4706 452.182C45.5529 452.576 46.6351 453.757 47.5206 455.528C47.7174 455.921 47.9141 456.315 48.0125 456.708C48.4061 457.594 48.7012 458.086 48.7996 458.282L49.9803 460.447L49.1931 460.84L48.3077 459.561L37.9771 464.973ZM41.0271 459.955L40.5352 459.069C40.1416 458.282 39.6497 457.79 38.961 457.594C38.3707 457.397 37.5836 457.495 36.7965 457.987C36.0094 458.381 35.5175 458.873 35.4191 459.463C35.3207 460.053 35.4191 460.84 35.911 461.824C36.1078 462.218 36.3046 462.611 36.5997 463.005L36.7965 463.3L41.4207 460.939C41.4207 460.742 41.2239 460.447 41.0271 459.955ZM46.6351 456.019C46.0448 454.937 45.4545 454.249 44.6674 453.953C43.9787 453.658 43.1916 453.757 42.3061 454.249C41.4206 454.642 40.9287 455.232 40.8303 455.823C40.6336 456.413 40.8303 457.298 41.3223 458.282C41.9126 459.365 42.3061 460.152 42.5029 460.447L47.4222 457.889C47.4222 457.594 47.1271 457.003 46.6351 456.019Z" fill="black"/>
<path d="M24.3013 438.9L25.1867 438.507L26.0722 439.884L36.6979 435.162L36.206 433.489L37.0915 433.095L39.256 437.916L38.3705 438.31L37.5834 436.933L26.9577 441.655L29.4174 447.165L40.1414 442.442L39.6495 440.77L40.535 440.376L42.6011 445.197L41.7156 445.591L40.9285 444.311L30.3028 449.034L30.6964 450.608L29.8109 451.002L24.3013 438.9Z" fill="black"/>
<path d="M34.9271 429.75C34.7303 430.734 34.14 431.718 33.3529 432.505C32.5658 433.292 31.4836 433.981 30.1062 434.473C28.7288 434.965 27.4498 435.162 26.2691 435.063C25.0885 434.965 24.0062 434.571 23.1208 433.883C22.2353 433.194 21.5466 432.309 21.153 431.226C20.4643 429.455 20.4643 427.783 21.2514 426.405C22.0385 425.028 23.4159 423.946 25.482 423.159C26.8595 422.667 28.1385 422.47 29.3191 422.568C30.4997 422.667 31.582 423.06 32.5658 423.749C33.4513 424.438 34.14 425.323 34.5335 426.405C35.0255 427.684 35.1239 428.767 34.9271 429.75ZM24.5965 433.096C25.8756 433.391 27.3514 433.096 29.3191 432.407C31.09 431.718 32.2707 430.931 33.0578 429.849C33.8448 428.865 34.0416 427.783 33.5497 426.602C33.1561 425.52 32.2707 424.831 30.9916 424.536C29.7126 424.241 28.1385 424.536 26.2691 425.225C24.4982 425.913 23.2192 426.701 22.5305 427.783C21.7434 428.767 21.645 429.849 22.1369 431.03C22.5304 432.21 23.4159 432.899 24.5965 433.096Z" fill="black"/>
<path d="M25.3835 416.96C27.0561 416.665 28.4335 416.567 29.4173 416.763C29.9093 416.862 30.3028 417.059 30.598 417.255C30.8931 417.551 31.0899 417.846 31.2867 418.239C31.4834 418.83 31.5818 419.223 31.5818 419.518L30.2044 420.109C30.106 419.813 30.0077 419.42 29.8109 418.731C29.7125 418.534 29.6141 418.338 29.4173 418.239C29.2206 418.141 29.0238 418.042 28.7286 417.944C27.0561 417.551 24.0061 418.042 19.6771 419.518L18.2997 420.01L18.7916 422.076L17.9062 422.371L14.4626 412.139L15.3481 411.844L16.1352 413.418L27.1544 409.68L26.7609 407.909L27.6464 407.614L29.5157 413.025L28.6302 413.32L27.8432 411.549L16.8239 415.189L18.0046 418.83L19.5787 418.338C21.8416 417.747 23.7109 417.255 25.3835 416.96Z" fill="black"/>
<path d="M14.6596 408.499L14.8564 410.073L13.9709 410.368L11.3145 401.218L14.0693 400.136L14.3644 401.12L12.7902 402.104L13.9709 406.63L18.9886 405.154L18.1031 402.202L16.5289 402.399L16.2338 401.415L20.366 400.235L20.6611 401.218L19.1853 401.907L19.9724 404.957L25.2853 403.383L23.6127 398.365L21.0547 398.07V396.889L24.3014 396.496L27.1546 406.433L26.2691 406.728L25.6788 405.252L14.6596 408.499Z" fill="black"/>
<path d="M10.4289 393.544L11.3144 396.594L15.2498 396.299L15.545 397.48L10.6257 398.365L7.87085 387.051L12.6918 385.673L12.9869 386.854L9.34664 388.428L10.0354 391.577L21.4481 388.723L20.9562 386.067L21.8417 385.87L23.5143 392.757L22.6288 392.954L21.8417 390.593L10.4289 393.544Z" fill="black"/>
<path d="M13.8726 377.704L14.0693 378.59C14.3645 378.885 14.758 379.082 15.4467 379.278C16.0371 379.475 16.8241 379.672 17.808 379.869C18.7919 380.065 19.4806 380.262 19.9725 380.361C20.4644 380.459 20.7596 380.656 20.7596 380.853L21.2515 383.312L20.366 383.509L20.0709 382.82C19.9725 382.623 19.7757 382.525 19.4806 382.328C19.087 382.23 18.5951 382.033 17.808 381.738C16.9225 381.541 16.2338 381.246 15.6435 381.049C15.0532 380.853 14.6596 380.557 14.3645 380.262C14.2661 381.148 13.9709 381.836 13.3806 382.525C12.7903 383.115 12.1016 383.509 11.1178 383.706C9.64197 384.001 8.55973 383.804 7.77264 383.017C6.98555 382.23 6.49362 381.049 6.19846 379.475C6.10007 379.082 6.10006 378.688 6.00167 378.098C5.90329 377.507 5.9033 377.015 5.80492 376.72L5.31299 374.064L6.19846 373.867L6.69039 375.343L18.1032 373.08L17.9064 371.309L18.7919 371.112L19.8741 376.524L18.9886 376.72L18.4967 374.949L13.5774 375.933L13.8726 377.704ZM6.88714 377.803C6.88714 378.393 6.98554 378.885 7.08393 379.278C7.2807 380.262 7.57586 380.951 8.16618 381.344C8.7565 381.738 9.44519 381.836 10.5274 381.64C11.5113 381.443 12.2 381.049 12.6919 380.459C13.1839 379.869 13.1839 379.082 13.0855 378.098C12.8887 377.114 12.7903 376.524 12.5936 376.13L6.98553 377.212L6.88714 377.803Z" fill="black"/>
<path d="M5.01777 367.177L5.6081 370.325H9.54354L9.74032 371.506L4.72263 371.998L2.95166 360.487L7.87096 359.503L8.06775 360.683L4.32909 361.864L4.72263 365.111L16.3322 363.34L16.1354 360.683L17.0209 360.585L18.1031 367.669L17.2176 367.767L16.6274 365.406L5.01777 367.177Z" fill="black"/>
<path d="M15.0531 350.058C14.5611 351.042 13.774 351.927 12.7902 352.517C11.8063 353.108 10.5273 353.501 9.14989 353.6C7.77248 353.698 6.49345 353.6 5.4112 353.108C4.32895 352.616 3.3451 351.927 2.6564 350.943C1.9677 349.959 1.57414 348.877 1.47576 347.598C1.37737 346.614 1.37738 345.434 1.57415 344.155L1.67254 343.564L5.01766 343.367L5.11605 344.646L2.75479 345.335C2.65641 345.532 2.558 345.827 2.45962 346.319C2.36123 346.713 2.36123 347.303 2.45962 347.893C2.558 348.68 2.85319 349.369 3.34512 349.959C3.83705 350.55 4.52573 350.943 5.50959 351.238C6.39507 351.533 7.47733 351.533 8.75635 351.435C9.93698 351.337 10.9208 351.042 11.9047 350.648C12.7902 350.254 13.5773 349.664 14.0692 348.975C14.5611 348.287 14.7579 347.5 14.6595 346.516C14.5611 345.827 14.4627 345.335 14.3643 345.04C14.266 344.745 14.0692 344.45 13.774 344.155L11.9047 343.564V342.384L14.5611 342.58C14.5611 342.875 14.7579 343.171 14.9547 343.663C15.1514 344.056 15.2498 344.548 15.4466 344.942C15.6434 345.335 15.6434 345.827 15.7417 346.516C15.7417 347.795 15.545 348.975 15.0531 350.058Z" fill="black"/>
<path d="M0.688708 335.989L1.57418 335.89L1.86935 337.661L11.216 337.169L8.85474 335.792L1.96771 330.774H1.47578L1.37742 332.447L0.491924 332.545L0.196777 327.429L1.08225 327.331L1.37742 328.806L12.987 328.216L13.0854 326.642H13.9708L14.266 331.856H13.3805L13.0854 330.184L3.5419 330.676L5.8048 331.955L12.7902 337.071H13.4789L13.5773 335.3L14.4628 335.201L14.7579 340.416L13.8724 340.514L13.5773 338.94L1.96771 339.53L1.86935 341.006L0.983854 341.105L0.688708 335.989Z" fill="black"/>
<path d="M0 315.721L4.9193 315.524V316.803L1.18065 317.393L1.08225 321.525L12.8886 321.329L13.0854 318.082H13.9708L14.0692 325.363H13.1838L12.987 323.296L1.37743 323.493L1.18065 325.461H0.295176L0 315.721Z" fill="black"/>
<path d="M1.18064 312.474L0.885499 313.95H0L0.196784 308.834H1.08225L1.27904 310.408L6.29673 310.605L6.49349 304.013L1.47579 303.816L1.18064 305.292H0.295176L0.49193 300.274H1.37743L1.57418 301.75L13.1838 302.144L13.3805 300.668H14.266L14.0692 305.686H13.1838L13.0854 304.111L7.67413 303.915L7.47735 310.507L12.8886 310.703L13.0854 309.129H13.9708L13.7741 314.245H12.8886L12.7902 312.769L1.18064 312.474Z" fill="black"/>
<path d="M0.787109 293.486L0.983864 291.42L14.1676 287.878L14.4628 286.697L15.3482 286.795L14.9547 291.715L14.0692 291.616L13.9708 290.042L11.1176 290.731L10.7241 296.142L13.3805 297.224L13.6757 295.65L14.5612 295.749L14.266 300.176L13.3805 300.078L13.2821 298.897L0.787109 293.486ZM3.93545 292.6L2.2629 292.895L3.93545 293.486L9.74025 295.847L10.1338 291.124L3.93545 292.6Z" fill="black"/>
<path d="M10.9209 281.482C12.5935 281.974 13.8725 282.466 14.6596 283.057C15.0531 283.352 15.3483 283.745 15.545 284.04C15.7418 284.434 15.7418 284.828 15.7418 285.221C15.6434 285.811 15.545 286.205 15.4467 286.5L13.9709 286.402C14.0692 286.107 14.0693 285.615 14.1676 285.024C14.1676 284.828 14.1676 284.532 14.0693 284.434C13.9709 284.237 13.7741 284.04 13.5773 283.844C12.1999 282.761 9.24834 281.876 4.72258 281.384L3.24678 281.187L2.75485 283.253L1.86938 283.155L3.14839 272.431L4.03386 272.529V274.3L15.545 275.678L15.9386 273.907L16.8241 274.005L16.1354 279.711L15.2499 279.613V277.645L3.73871 276.268L3.24678 280.007L4.91933 280.203C7.2806 280.695 9.24832 280.99 10.9209 281.482Z" fill="black"/>
<path d="M9.74031 265.445C10.0355 263.97 10.5274 262.887 11.4129 262.199C12.2983 261.51 13.2822 261.313 14.5612 261.51C15.9386 261.805 17.0209 262.396 17.6112 263.478C18.2015 264.462 18.3983 265.741 18.1031 267.216C18.1031 267.413 18.0047 267.61 18.0047 267.807C17.9063 268.004 17.9063 268.2 17.808 268.495C17.6112 269.184 17.5128 269.774 17.4144 270.365L17.0209 272.824L16.1354 272.628L16.2338 271.053L4.72261 268.987L4.23068 270.463L3.34521 270.266L4.23068 265.052L5.11615 265.249L5.01776 267.118L9.24838 267.905L9.74031 265.445ZM6.39516 252.95L7.28066 253.147L7.18227 254.918L18.5951 256.984L19.087 255.312L19.9725 255.508L18.9886 260.92L18.1031 260.723L18.2015 258.952L6.78873 256.886L6.2968 258.558L5.4113 258.362L6.39516 252.95ZM16.9225 268.397C17.0209 268.2 17.0209 267.807 17.1193 267.413C17.316 266.429 17.1193 265.544 16.6273 264.855C16.1354 264.166 15.3483 263.773 14.266 263.576C13.2822 263.379 12.3967 263.576 11.8064 263.97C11.2161 264.462 10.8226 265.15 10.6258 266.134L10.3306 268.004L16.5289 269.086C16.7257 268.889 16.8241 268.594 16.9225 268.397Z" fill="black"/>
<path d="M9.44503 244.784L8.85471 246.162L7.96924 245.965L9.24828 241.046L10.1337 241.242L9.93696 242.817L14.8563 243.997L16.4304 237.602L11.5111 236.422L10.9208 237.799L10.0354 237.602L11.216 232.781L12.1015 232.978L12.0031 234.454L23.3175 237.307L23.9078 235.93L24.7933 236.126L23.6126 241.046L22.7272 240.849L22.9239 239.275L17.6111 237.996L16.0369 244.391L21.3498 245.67L21.9401 244.096L22.8255 244.292L21.5465 249.31L20.661 249.113L20.8578 247.638L9.44503 244.784Z" fill="black"/>
<path d="M13.1836 226.19L13.7739 224.222L27.4496 223.632L27.9415 222.549L28.827 222.844L27.3512 227.567L26.4657 227.272L26.7609 225.698H23.8093L22.2351 230.912L24.5964 232.585L25.2851 231.109L26.1705 231.404L24.8915 235.635L24.0061 235.34L24.2028 234.159L13.1836 226.19ZM16.3319 225.993H14.6594L16.1352 226.878L21.3496 230.42L22.727 225.894L16.3319 225.993Z" fill="black"/>
<path d="M19.1852 211.628L18.2998 213.498L17.4143 213.202L19.1852 208.578L27.9416 209.07L30.4013 209.365L28.3352 207.988L21.3498 202.577L23.1207 197.953L24.0062 198.248L23.5143 200.216L34.927 202.872L35.7141 201.396L36.5996 201.691L34.6319 206.807L33.7464 206.512L34.1399 204.84L25.9739 202.675L22.432 201.79L24.6949 203.462L32.7625 209.857L32.369 211.038L22.9239 210.743L19.1852 210.546L22.432 212.12L30.0077 215.761L30.7948 214.088L31.6803 214.383L30.0077 218.909L29.1222 218.614L29.5158 217.04L19.1852 211.628Z" fill="black"/>
<path d="M25.8755 191.361L26.6626 189.491L40.3382 190.475L40.9285 189.491L41.814 189.885L39.8463 194.411L38.9608 194.017L39.4528 192.541L36.5996 192.246L34.4351 197.264L36.5996 199.133L37.3866 197.756L38.2721 198.149L36.5012 202.183L35.6157 201.79L35.9109 200.609L25.8755 191.361ZM29.0238 191.459L27.3513 191.262L28.7287 192.345L33.4512 196.477L35.3206 192.148L29.0238 191.459Z" fill="black"/>
<path d="M31.2868 182.408L30.4014 183.588L29.5159 183.195L30.5981 180.932C30.7949 180.538 30.9917 180.145 31.0901 179.751C31.3852 179.161 31.582 178.571 31.8772 177.98C32.6642 176.406 33.5497 175.324 34.4352 174.93C35.3206 174.537 36.4029 174.635 37.5835 175.226C38.469 175.619 39.1577 176.209 39.6497 176.997C40.1416 177.784 40.3383 178.571 40.3383 179.456C40.3383 180.342 40.1416 181.326 39.6497 182.211C39.4529 182.506 39.3545 182.9 39.1577 183.195C38.961 183.49 38.8625 183.687 38.8625 183.785L42.6012 185.556L43.8802 183.392L44.6674 183.785L42.0109 189.295L41.2238 188.901L41.7158 187.425L31.2868 182.408ZM38.8625 181.817C39.2561 180.932 39.3545 180.047 39.0593 179.259C38.7642 178.472 38.0755 177.784 36.7965 177.095C35.8126 176.603 35.0255 176.505 34.3368 176.8C33.6481 177.095 33.1562 177.685 32.5658 178.768C32.3691 179.161 32.2707 179.555 32.0739 179.948C31.9755 180.243 31.8772 180.342 31.8772 180.44L37.8787 183.293C38.1738 183.097 38.469 182.605 38.8625 181.817Z" fill="black"/>
<path d="M48.0124 175.914C47.0285 176.505 45.9463 176.701 44.7657 176.701C43.585 176.603 42.4044 176.308 41.1254 175.619C39.9448 174.93 38.9609 174.143 38.2722 173.061C37.5835 172.077 37.2883 170.897 37.1899 169.716C37.1899 168.535 37.3867 167.355 38.0754 166.272C38.5673 165.387 39.1577 164.501 40.1415 163.419L40.5351 162.927L43.3883 164.698L42.7979 165.78L40.4367 165.092C40.2399 165.19 39.9448 165.387 39.6496 165.682C39.3544 165.977 39.0593 166.469 38.7641 166.961C38.3706 167.65 38.2722 168.437 38.3706 169.126C38.4689 169.913 38.8625 170.601 39.4528 171.388C40.0431 172.077 40.9286 172.766 42.0109 173.356C42.9947 173.946 44.077 174.242 45.0608 174.438C46.0447 174.635 46.9301 174.537 47.7172 174.242C48.5043 173.946 49.0947 173.356 49.5866 172.569C49.8818 171.979 50.0785 171.487 50.1769 171.192C50.2753 170.897 50.2753 170.503 50.1769 170.208L48.8979 168.634L49.5866 167.65L51.7511 169.322C51.6527 169.519 51.5543 169.913 51.4559 170.503C51.3575 170.995 51.2591 171.388 51.1607 171.782C51.0624 172.176 50.8656 172.667 50.5705 173.258C49.7834 174.438 48.8979 175.324 48.0124 175.914Z" fill="black"/>
<path d="M51.0624 144.529L51.8495 145.021L51.0624 146.694L58.9333 151.81L57.8511 149.252L55.293 141.184L54.8995 140.889L53.8172 142.168L53.0302 141.676L55.8834 137.347L56.6704 137.839L56.0801 139.216L65.8204 145.611L66.8042 144.431L67.5913 144.923L64.7381 149.252L63.951 148.76L64.7381 147.284L56.7688 142.069L57.8511 144.431L60.4091 152.695L60.9994 153.089L62.0817 151.711L62.8688 152.203L60.0156 156.631L59.2285 156.139L59.9172 154.761L50.1769 148.366L49.1931 149.448L48.406 148.956L51.0624 144.529Z" fill="black"/>
<path d="M58.343 134.297C58.5398 133.805 58.7366 133.313 58.9333 132.92C59.1301 132.526 59.3269 132.231 59.5236 131.936C60.4091 130.657 61.393 129.87 62.2785 129.476C63.1639 129.083 64.0494 129.279 64.9349 129.87C65.7219 130.46 66.2139 131.149 66.3123 132.034C66.4107 132.92 66.3123 133.707 65.9187 134.592C66.6074 133.707 67.3945 133.117 68.28 133.018C69.1655 132.821 69.9526 133.018 70.7397 133.608C71.8219 134.396 72.4122 135.379 72.5106 136.462C72.609 137.544 72.1171 138.823 71.0348 140.299C70.6413 140.889 70.1493 141.381 69.7558 141.774C69.3623 142.168 68.9687 142.463 68.6736 142.66C68.3784 142.857 68.1816 142.955 68.1816 143.054L65.722 140.889L66.3123 140.102L68.5752 141.086C69.1655 140.791 69.8542 140.2 70.4445 139.315C70.9364 138.626 71.1332 137.937 70.9364 137.347C70.7396 136.658 70.3461 136.068 69.4606 135.478C68.8703 134.986 68.1816 134.789 67.4929 134.887C66.8042 134.986 66.1155 135.478 65.4268 136.363L64.6397 137.446L63.7542 136.855L64.3446 135.97C64.6397 135.576 64.8365 135.084 64.9349 134.592C65.0332 134.1 65.0333 133.608 64.8365 133.117C64.6397 132.625 64.2462 132.231 63.7542 131.838C63.0655 131.346 62.4752 131.149 61.8849 131.346C61.2946 131.542 60.8027 131.936 60.3107 132.526C60.0156 133.018 59.8188 133.412 59.622 133.805C59.4252 134.199 59.5236 134.494 59.622 134.691L60.8027 135.97L60.1139 136.954L57.6543 135.379C57.8511 135.183 58.0479 134.789 58.343 134.297Z" fill="black"/>
<path d="M68.6735 121.9L67.4929 122.983L66.8042 122.392L68.3784 120.424C68.6735 120.129 68.9687 119.637 69.3622 119.145C69.6574 118.654 69.9525 118.26 70.1493 118.063C71.2316 116.686 72.2154 115.899 73.1009 115.702C73.9864 115.505 74.8719 115.702 75.6589 116.292C76.3477 116.883 76.7412 117.571 76.938 118.358C77.1347 119.145 76.938 119.933 76.5444 120.72C77.2331 119.736 78.1186 119.244 79.0041 119.047C79.8895 118.85 80.775 119.145 81.4637 119.736C82.4476 120.523 82.9395 121.507 83.0379 122.687C83.1363 123.868 82.4476 125.245 81.1685 126.918C80.8734 127.312 80.5782 127.607 80.2831 127.902C79.5944 128.591 79.2992 129.082 79.1025 129.181L77.5283 131.149L76.8396 130.558L77.6267 129.279L68.6735 121.9ZM74.4783 122.687L75.167 121.9C75.7573 121.212 75.9541 120.523 75.8557 119.933C75.7573 119.342 75.3638 118.654 74.6751 118.063C73.9864 117.473 73.396 117.276 72.8057 117.375C72.2154 117.473 71.5267 117.965 70.9364 118.752C70.6412 119.145 70.3461 119.441 70.1493 119.834L69.9525 120.129L73.9864 123.376C73.888 123.376 74.1831 123.081 74.4783 122.687ZM80.3815 126.229C81.1686 125.245 81.5621 124.36 81.4637 123.573C81.3653 122.786 80.9718 122.097 80.2831 121.507C79.496 120.916 78.8073 120.621 78.217 120.72C77.5283 120.818 76.9379 121.31 76.2492 122.195C75.4622 123.179 74.9702 123.77 74.7734 124.065L79.1025 127.607C79.2992 127.508 79.6928 127.016 80.3815 126.229Z" fill="black"/>
<path d="M78.1187 108.618L79.4961 107.044L92.1879 112.16L93.0733 111.373L93.762 111.963L90.5153 115.702L89.8266 115.112L90.7121 113.833L88.0556 112.652L84.4154 116.784L85.8911 119.244L87.0718 118.162L87.7605 118.752L84.8089 122.097L84.1202 121.507L84.7105 120.523L78.1187 108.618ZM81.1686 109.7L79.5944 109.012L80.5783 110.487L83.825 115.899L86.9734 112.357L81.1686 109.7Z" fill="black"/>
<path d="M95.4345 109.209C94.3523 109.504 93.27 109.405 92.0894 109.11C91.0072 108.717 89.9249 108.028 88.8427 107.044C87.8588 106.06 87.1701 104.978 86.7766 103.896C86.383 102.813 86.383 101.534 86.6782 100.452C86.9733 99.2716 87.5637 98.2877 88.4491 97.3039C89.1378 96.6152 90.0233 95.9265 91.2039 95.1394L91.6959 94.7458L93.9587 97.2055L93.0733 98.091L91.0071 96.8119C90.8104 96.8119 90.5152 97.0087 90.1217 97.2055C89.7281 97.4023 89.3346 97.7958 88.9411 98.1894C88.3507 98.7797 88.0556 99.4684 87.9572 100.157C87.8588 100.944 87.9572 101.731 88.3507 102.617C88.7443 103.502 89.433 104.388 90.3185 105.175C91.2039 105.962 92.0894 106.651 92.9749 107.044C93.8603 107.438 94.7458 107.634 95.6313 107.634C96.5168 107.634 97.2055 107.241 97.8942 106.552C98.3861 106.06 98.6813 105.667 98.7797 105.372C98.9764 105.076 99.0748 104.683 99.0748 104.388L98.2877 102.518L99.1732 101.731L100.747 103.896C100.551 104.093 100.354 104.388 100.157 104.88C99.9603 105.273 99.7635 105.667 99.4684 106.06C99.2716 106.454 98.878 106.847 98.4845 107.241C97.599 108.323 96.5168 108.913 95.4345 109.209Z" fill="black"/>
<path d="M100.255 89.5314C100.059 88.4491 100.059 87.3669 100.354 86.383C100.649 85.3991 101.141 84.612 101.928 83.825C102.813 82.9395 103.797 82.4475 104.781 82.2508C105.765 82.054 106.847 82.1524 107.831 82.6443C108.815 83.1363 109.799 83.825 110.783 84.7104C111.865 85.7927 112.554 86.9733 112.947 88.1539C113.341 89.3346 113.439 90.4168 113.144 91.4991C112.849 92.5813 112.357 93.4668 111.57 94.2539C110.684 95.1394 109.7 95.6313 108.618 95.8281C107.634 96.0248 106.552 95.9264 105.568 95.5329C104.584 95.1394 103.502 94.4507 102.617 93.4668L100.452 95.5329L104.191 99.4683L105.47 98.4845L106.06 99.1732L102.322 102.715L101.731 102.026L102.715 100.846L94.7458 92.3845L93.4668 93.27L92.7781 92.5813L96.4183 89.1378L97.1071 89.8265L96.1232 91.0071L99.5667 94.6474L101.83 92.5813C101.042 91.6958 100.551 90.712 100.255 89.5314ZM101.633 87.8588C101.83 89.1378 102.617 90.5152 104.092 91.991C105.371 93.27 106.552 94.1555 107.831 94.4507C109.11 94.7458 110.094 94.549 111.078 93.6636C111.963 92.8765 112.259 91.7942 111.963 90.6136C111.668 89.433 110.881 88.0556 109.504 86.5798C108.225 85.3008 107.044 84.4153 105.863 84.1201C104.683 83.825 103.601 84.0217 102.715 84.8088C101.83 85.5959 101.436 86.5798 101.633 87.8588Z" fill="black"/>
<path d="M119.047 79.5945C119.834 79.7913 120.818 80.0864 122.097 80.3816C122.983 80.6767 123.573 80.8735 124.065 80.9719C124.557 81.0703 124.753 81.0703 124.95 80.9719L125.639 80.6768L126.229 81.3655L124.458 82.8412C124.262 83.038 123.868 83.038 123.278 82.9396C122.687 82.8412 121.9 82.5461 120.818 82.1525C119.637 81.6606 118.654 81.3655 117.965 81.1687C117.276 80.9719 116.784 81.0703 116.489 81.2671L115.604 82.0542L119.047 86.088L120.425 85.2025L121.015 85.8912L117.079 89.2363L116.489 88.5476L117.571 87.4654L110.094 78.6106L108.815 79.3977L108.225 78.709L112.062 75.4623L112.652 76.151L111.57 77.3316L115.013 81.4638L116.194 80.3816L115.604 73.7897L114.226 74.6752L113.636 73.9865L117.178 71.0349L117.768 71.7236L116.784 72.8059L117.178 79.5945C117.571 79.4961 118.26 79.4961 119.047 79.5945Z" fill="black"/>
<path d="M128.394 78.9058C127.311 79.0042 126.328 78.709 125.344 78.1187C124.36 77.5284 123.376 76.7413 122.491 75.5607C121.605 74.3801 121.015 73.2978 120.818 72.1172C120.621 70.9365 120.621 69.8543 121.015 68.772C121.408 67.6898 122.097 66.8043 122.982 66.1156C124.557 64.935 126.032 64.5414 127.607 64.8366C129.181 65.1318 130.657 66.214 131.936 67.8866C132.821 69.0672 133.411 70.2478 133.608 71.4285C133.805 72.6091 133.805 73.7897 133.411 74.872C133.018 75.9542 132.329 76.8397 131.444 77.5284C130.46 78.4139 129.476 78.8074 128.394 78.9058ZM122.294 70.0511C122.392 71.3301 123.081 72.7075 124.261 74.38C125.442 75.8558 126.623 76.8397 127.803 77.2333C128.984 77.7252 130.066 77.5284 131.05 76.7413C132.034 76.0526 132.428 74.9704 132.329 73.6913C132.231 72.4123 131.542 70.9365 130.263 69.3624C129.082 67.8866 127.902 66.9027 126.721 66.5092C125.541 66.1156 124.458 66.214 123.474 67.0011C122.589 67.7882 122.195 68.772 122.294 70.0511Z" fill="black"/>
<path d="M131.345 61.4913L129.968 62.18L129.476 61.3929L131.542 59.9171C131.936 59.7204 132.329 59.3268 132.821 58.9333C133.313 58.5397 133.608 58.2446 133.903 58.1462C135.281 57.1623 136.461 56.6704 137.347 56.6704C138.232 56.6704 139.02 57.064 139.61 57.9494C140.102 58.6381 140.397 59.4252 140.299 60.2123C140.2 60.9994 139.905 61.7865 139.315 62.3768C140.299 61.6881 141.184 61.3929 142.07 61.3929C142.955 61.3929 143.742 61.8849 144.332 62.7703C145.021 63.7542 145.316 64.9348 145.021 66.0171C144.726 67.1977 143.742 68.3784 142.07 69.559C141.676 69.8541 141.381 70.0509 140.987 70.2477C140.2 70.7396 139.708 71.1332 139.511 71.2315L137.445 72.7073L136.953 72.0186L138.134 70.9364L131.345 61.4913ZM136.757 63.8526L137.642 63.2623C138.331 62.7703 138.724 62.18 138.823 61.4913C138.921 60.8026 138.724 60.1139 138.134 59.4252C137.642 58.7365 137.052 58.343 136.461 58.2446C135.871 58.1462 135.084 58.4414 134.199 59.0317C133.805 59.3268 133.51 59.622 133.116 59.9171L132.821 60.2123L135.871 64.4429C135.97 64.3445 136.265 64.1477 136.757 63.8526ZM141.381 68.8703C142.365 68.1816 142.955 67.3945 143.152 66.6074C143.349 65.8203 143.152 65.1316 142.561 64.2461C141.971 63.459 141.381 63.0655 140.79 62.9671C140.102 62.8687 139.315 63.1639 138.429 63.8526C137.347 64.5413 136.757 65.0332 136.461 65.23L139.708 69.7558C140.003 69.8541 140.594 69.4606 141.381 68.8703Z" fill="black"/>
<path d="M155.253 44.3721L155.745 45.1592L154.565 46.2414L160.665 56.08L162.239 55.2929L162.731 56.08L158.303 58.8348L157.811 58.0477L158.992 57.0639L152.794 47.1269L147.678 50.2752L153.876 60.2122L155.45 59.4251L155.942 60.2122L151.515 62.967L151.023 62.18L152.203 61.1961L146.103 51.3575L144.628 52.0462L144.136 51.2591L155.253 44.3721Z" fill="black"/>
<path d="M165.781 53.5221C164.698 53.4237 163.715 53.0302 162.829 52.3415C161.944 51.6528 161.156 50.6689 160.468 49.3899C159.779 48.1109 159.386 46.9302 159.287 45.6512C159.189 44.4706 159.484 43.3883 159.976 42.4045C160.468 41.4206 161.255 40.6335 162.337 40.0432C164.01 39.0594 165.584 38.8626 167.158 39.4529C168.634 40.0432 169.913 41.2238 170.995 43.1916C171.684 44.4706 172.077 45.7496 172.176 46.9302C172.274 48.2093 171.979 49.2915 171.389 50.2754C170.798 51.2592 170.011 52.0463 169.027 52.6366C167.847 53.3253 166.863 53.6205 165.781 53.5221ZM160.96 43.7819C160.861 45.0609 161.353 46.5367 162.337 48.3077C163.223 49.9802 164.305 51.0625 165.387 51.6528C166.469 52.2431 167.65 52.2431 168.634 51.6528C169.716 51.0625 170.208 50.177 170.306 48.7996C170.405 47.5206 169.913 45.9464 168.929 44.1754C168.044 42.5029 166.961 41.4206 165.879 40.8303C164.797 40.24 163.715 40.24 162.632 40.8303C161.648 41.6174 161.058 42.6013 160.96 43.7819Z" fill="black"/>
<path d="M177.193 42.3059C177.784 43.9784 177.981 45.2574 177.882 46.3397C177.882 46.8316 177.685 47.3235 177.489 47.6187C177.292 47.9139 176.997 48.209 176.603 48.4058C176.111 48.701 175.619 48.7993 175.422 48.8977L174.635 47.6187C174.931 47.5203 175.324 47.3235 175.914 47.0284C176.111 46.93 176.308 46.8316 176.406 46.6348C176.505 46.4381 176.603 46.2413 176.603 45.9461C176.8 44.1752 175.816 41.322 173.75 37.1898L173.061 35.9108L170.995 36.6978L170.602 35.9108L180.243 31.0898L180.637 31.8769L179.161 32.8608L184.376 43.2897L186.147 42.601L186.54 43.3881L181.424 45.9461L181.03 45.159L182.703 44.0768L177.489 33.6479L174.143 35.3204L174.931 36.7962C175.816 38.8623 176.603 40.7317 177.193 42.3059Z" fill="black"/>
<path d="M183.982 30.4996L182.506 30.8932L182.113 30.0077L190.771 26.0723L192.246 28.6303L191.262 29.0238L189.983 27.5481L185.753 29.319L187.917 34.1399L190.771 32.7625L190.377 31.2867L191.361 30.8932L193.132 34.8286L192.148 35.2222L191.262 33.8448L188.409 35.1238L190.672 40.2399L195.395 37.8786L195.296 35.3206L196.477 35.2222L197.362 38.3705L187.917 42.6011L187.524 41.814L188.901 41.0269L183.982 30.4996Z" fill="black"/>
<path d="M198.248 24.203L195.296 25.482L196.182 29.3191L195.001 29.811L193.427 25.0885L204.25 20.7595L206.316 25.2853L205.233 25.6788L203.167 22.2353L200.117 23.3176L204.545 34.2384L207.103 33.4513L207.398 34.3368L200.806 36.9932L200.511 36.1078L202.675 35.0255L198.248 24.203Z" fill="black"/>
<path d="M214.383 25.3835L213.498 25.6787C213.301 25.9739 213.104 26.4658 213.006 27.0561C212.908 27.7448 212.809 28.5319 212.809 29.5158C212.711 30.4996 212.711 31.1883 212.612 31.6803C212.514 32.1722 212.416 32.4673 212.219 32.5657L209.858 33.4512L209.562 32.5657L210.153 32.1722C210.35 32.0738 210.448 31.877 210.546 31.4835C210.645 31.0899 210.743 30.4996 210.841 29.7125C210.94 28.8271 211.137 28.04 211.235 27.4497C211.432 26.8593 211.629 26.3674 211.924 26.0723C211.038 26.1706 210.251 25.9739 209.562 25.4819C208.874 24.99 208.382 24.3013 208.087 23.4158C207.595 22.0384 207.693 20.8578 208.283 20.0707C208.972 19.1852 210.054 18.4965 211.629 18.0046C211.924 17.9062 212.416 17.7094 213.006 17.611C213.596 17.4143 213.99 17.3159 214.285 17.2175L216.843 16.332L217.138 17.2175L215.761 17.9062L219.598 28.7287L221.27 28.3351L221.566 29.2206L216.351 31.0899L216.056 30.2045L217.729 29.4174L216.056 24.6948L214.383 25.3835ZM213.301 18.3981C212.711 18.4965 212.317 18.6933 211.825 18.7917C210.94 19.0868 210.251 19.5788 209.956 20.0707C209.563 20.661 209.563 21.4481 209.956 22.432C210.251 23.4158 210.842 24.0061 211.432 24.3997C212.121 24.6948 212.908 24.6948 213.793 24.3997C214.777 24.1045 215.367 23.8094 215.662 23.711L213.793 18.2998L213.301 18.3981Z" fill="black"/>
<path d="M223.533 15.1515L220.483 16.2338L220.975 20.1692L219.795 20.5628L218.614 15.6435L229.732 12.2L231.404 16.9225L230.322 17.2176L228.551 13.6757L225.403 14.5612L228.846 25.8756L231.404 25.2853L231.699 26.1708L224.911 28.2369L224.616 27.3514L226.878 26.4659L223.533 15.1515Z" fill="black"/>
<path d="M241.931 22.6288C240.849 22.2352 239.964 21.6449 239.177 20.7594C238.39 19.874 237.898 18.6933 237.504 17.3159C237.209 15.9385 237.209 14.6595 237.504 13.4789C237.799 12.2982 238.39 11.3144 239.275 10.5273C240.16 9.7402 241.144 9.14989 242.423 8.85473C243.309 8.65796 244.489 8.46118 245.867 8.46118H246.457L247.048 11.8063L245.867 12.1015L244.883 9.93697C244.686 9.83859 244.391 9.7402 243.899 9.7402C243.407 9.7402 242.915 9.83859 242.325 9.93697C241.538 10.1337 240.948 10.5273 240.456 11.1176C239.964 11.7079 239.669 12.495 239.472 13.3805C239.373 14.3643 239.373 15.3482 239.669 16.6272C239.964 17.8079 240.357 18.7917 240.849 19.5788C241.341 20.3659 242.03 21.0546 242.817 21.4481C243.604 21.8417 244.391 21.9401 245.277 21.7433C245.965 21.5465 246.359 21.4481 246.752 21.2514C247.047 21.0546 247.343 20.8578 247.539 20.5627L247.835 18.5949L249.015 18.4966L249.212 21.153C248.917 21.2514 248.622 21.4481 248.13 21.6449C247.736 21.8417 247.343 22.1368 246.949 22.2352C246.556 22.432 246.064 22.5304 245.473 22.7272C244.194 23.0223 243.014 23.0223 241.931 22.6288Z" fill="black"/>
<path d="M253.738 6.39498L253.934 7.28045L252.163 7.87078L253.934 17.1191L255.017 14.561L259.05 7.08368L258.952 6.59175L257.28 6.69014L257.083 5.80466L262.1 4.8208L262.297 5.70628L260.92 6.19821L263.183 17.611L264.757 17.5126L264.954 18.3981L259.838 19.3819L259.641 18.4965L261.215 18.0045L259.346 8.65786L258.362 11.0191L254.23 18.5949L254.328 19.2836L256.099 19.0868L256.296 19.9723L251.081 20.9561L250.884 20.0706L252.36 19.5787L250.097 8.16593L248.622 8.26431L248.425 7.37885L253.738 6.39498Z" fill="black"/>
<path d="M273.809 2.95142L274.694 7.77233L273.415 7.96911L272.333 4.32882L268.201 4.82075L269.972 16.5287L273.218 16.2335L273.317 17.119L266.036 18.2013L265.938 17.3158L267.905 16.8239L266.134 5.41107H264.167L264.068 4.52559L273.809 2.95142Z" fill="black"/>
<path d="M277.252 3.64031L275.776 3.54193L275.678 2.65645L280.695 2.06614L280.794 2.95161L279.22 3.34515L279.81 8.36285L286.303 7.67414L285.713 2.65645L284.139 2.55807L284.041 1.67259L289.058 1.08228L289.157 1.96775L287.681 2.36129L288.96 13.8725H290.436L290.534 14.7579L285.516 15.3483L285.418 14.4628L286.894 14.0692L286.303 8.658L279.81 9.34671L280.4 14.7579H282.073L282.171 15.6434L277.055 16.2337L276.957 15.3483L278.433 14.9547L277.252 3.64031Z" fill="black"/>
<path d="M295.945 0.688717L298.011 0.590332L303.324 13.1837L304.505 13.2821L304.603 14.1676L299.684 14.4628L299.585 13.5773L301.16 13.2821L300.077 10.5273L294.666 10.8225L293.977 13.6757L295.552 13.7741L295.65 14.6595L291.223 14.9547L291.124 14.0692L292.305 13.7741L295.945 0.688717ZM297.323 3.54191L296.732 1.96774L296.437 3.6403L294.961 9.74023L299.684 9.44508L297.323 3.54191Z" fill="black"/>
<path d="M309.227 8.95314C309.031 10.6257 308.637 12.0031 308.145 12.8886C307.85 13.3805 307.555 13.6757 307.26 13.8724C306.965 14.0692 306.571 14.1676 306.079 14.1676C305.489 14.1676 304.997 14.1676 304.702 14.0692L304.505 12.5934C304.8 12.5934 305.292 12.5934 305.882 12.5934C306.079 12.5934 306.276 12.495 306.473 12.3966C306.669 12.2983 306.768 12.1015 306.965 11.8063C307.85 10.3305 308.342 7.28057 308.244 2.65643V1.18063H306.177V0.196773L317 0V0.983861L315.229 1.27902L315.426 12.8886L317.295 13.0853V13.9708L311.49 14.0692V13.1837L313.458 12.987L313.261 1.37741L309.424 1.47579V3.14836C309.523 5.21446 309.424 7.28057 309.227 8.95314Z" fill="black"/>
<path d="M324.969 5.60801C326.445 5.70639 327.626 6.09994 328.413 6.78864C329.2 7.47734 329.593 8.55959 329.495 9.83861C329.397 11.3144 328.905 12.3966 328.019 13.0853C327.035 13.8724 325.855 14.1676 324.379 14.1676C324.182 14.1676 323.986 14.1676 323.789 14.1676C323.592 14.1676 323.395 14.1676 323.1 14.0692C322.411 13.9708 321.723 13.9708 321.132 13.8724L318.574 13.7741V12.8886L320.148 12.7902L320.542 1.18063L319.066 0.885476V0L324.379 0.196773V1.08225L322.51 1.27902L322.313 5.60801H324.969ZM323.002 13.0853C323.198 13.0853 323.592 13.1837 323.985 13.1837C325.068 13.1837 325.855 12.987 326.445 12.3966C327.035 11.8063 327.331 11.0192 327.331 9.937C327.331 8.85475 327.134 8.16605 326.544 7.57573C326.052 7.0838 325.264 6.78864 324.182 6.69025H322.313L322.116 12.987C322.51 12.987 322.805 13.0853 323.002 13.0853ZM336.874 0.590319V1.47579L335.103 1.67256L334.71 13.2821L336.48 13.5773V14.4628L330.971 14.266V13.3805L332.742 13.2821L333.135 1.67256L331.364 1.37741V0.49193L336.874 0.590319Z" fill="black"/>
<path d="M345.335 2.45969L343.859 2.06614L343.958 1.18066L348.975 1.67259L348.877 2.55807L347.303 2.65646L346.811 7.67414L353.403 8.36285L353.895 3.34516L352.419 2.95162L352.517 2.06614L357.535 2.55807L357.437 3.44355L355.961 3.54193L354.78 15.1515L356.256 15.4466L356.158 16.3321L351.14 15.8402L351.238 14.9547H352.812L353.403 9.54348L346.811 8.85478L346.221 14.266L347.795 14.6596L347.696 15.545L342.58 14.9547L342.679 14.0692H344.253L345.335 2.45969Z" fill="black"/>
<path d="M364.225 3.4436L366.291 3.73876L368.85 17.2177L369.932 17.6112L369.833 18.4967L364.914 17.7096L365.012 16.8241L366.587 16.9225L366.193 13.9709L360.782 13.1838L359.503 15.7419L361.077 16.1354L360.979 17.0209L356.551 16.3322L356.65 15.4467H357.83L364.225 3.4436ZM365.012 6.59196L364.816 4.91939L364.127 6.49357L361.372 12.1016L366.095 12.7903L365.012 6.59196Z" fill="black"/>
<path d="M379.475 7.37912L377.507 6.69041L377.704 5.80493L382.525 6.88718L383.312 15.6435L383.411 18.1032L384.493 15.9387L388.822 8.26458L393.643 9.34684L393.446 10.2323L391.38 10.0355L390.298 21.6451L391.872 22.2354L391.675 23.1209L386.461 21.9403L386.657 21.0548L388.33 21.2516L389.314 12.8887L389.707 9.24844L388.33 11.7081L383.214 20.5628L382.033 20.2677L381.049 10.8226L380.754 7.18234L379.672 10.6259L377.114 18.6935L378.885 19.2838L378.688 20.1693L373.966 19.0871L374.162 18.2016L375.737 18.3984L379.475 7.37912Z" fill="black"/>
<path d="M400.53 11.1177L402.498 11.708L403.481 25.3837L404.564 25.7772L404.367 26.6627L399.644 25.3837L399.841 24.4982L401.415 24.695L401.317 21.8418L396.102 20.366L394.528 22.8256L396.004 23.4159L395.807 24.3014L391.577 23.1208L391.773 22.2353L392.954 22.3337L400.53 11.1177ZM400.923 14.266V12.5935L400.038 14.0693L396.594 19.3821L401.218 20.6611L400.923 14.266Z" fill="black"/>
<path d="M410.171 15.1513L408.892 14.4626L409.188 13.5771L411.549 14.3642C411.942 14.4626 412.434 14.6594 412.828 14.7578C413.517 14.9546 414.107 15.0529 414.697 15.2497C416.37 15.84 417.55 16.5287 418.042 17.4142C418.534 18.2997 418.633 19.3819 418.239 20.5626C417.944 21.5464 417.452 22.2351 416.763 22.8254C416.075 23.4158 415.288 23.7109 414.402 23.8093C413.517 23.9077 412.533 23.8093 411.549 23.5141C411.155 23.4158 410.86 23.3174 410.467 23.1206C410.073 23.0222 409.876 22.9238 409.778 22.8254L408.499 26.7609L410.86 27.7447L410.565 28.6302L404.76 26.7609L405.055 25.8754L406.63 26.1706L410.171 15.1513ZM411.844 22.6287C412.828 22.9238 413.615 22.9238 414.402 22.5303C415.189 22.1367 415.779 21.3496 416.173 19.9722C416.468 18.9884 416.468 18.1029 416.075 17.5126C415.681 16.9223 414.992 16.4303 413.91 16.0368C413.517 15.9384 413.123 15.84 412.631 15.7416C412.336 15.6433 412.139 15.6433 412.139 15.6433L410.073 21.94C410.467 22.1367 410.959 22.3335 411.844 22.6287Z" fill="black"/>
<path d="M418.928 30.7947C418.239 29.9092 417.846 28.8269 417.747 27.7447C417.649 26.6624 417.846 25.285 418.338 23.9076C418.83 22.6286 419.518 21.5464 420.404 20.7593C421.289 19.9722 422.372 19.4803 423.552 19.2835C424.733 19.0867 425.914 19.1851 427.094 19.677C427.98 19.9722 429.062 20.5625 430.144 21.2512L430.734 21.5464L429.357 24.5963L428.176 24.2028L428.57 21.8415C428.472 21.6448 428.176 21.448 427.881 21.1528C427.586 20.8577 426.996 20.6609 426.405 20.4641C425.618 20.169 424.93 20.169 424.143 20.3657C423.356 20.5625 422.667 21.0544 422.076 21.7431C421.486 22.4318 420.896 23.4157 420.502 24.498C420.109 25.5802 419.912 26.6624 419.814 27.6463C419.814 28.6302 419.912 29.5156 420.404 30.3027C420.896 31.0898 421.486 31.5817 422.372 31.8769C422.962 32.0737 423.454 32.2705 423.847 32.2705C424.241 32.2705 424.536 32.2705 424.831 32.1721L426.209 30.6963L427.291 31.2866L425.914 33.6479C425.618 33.5495 425.225 33.5495 424.733 33.4511C424.241 33.4511 423.847 33.3527 423.355 33.3527C422.962 33.2543 422.47 33.1559 421.88 32.9592C420.699 32.3688 419.617 31.6801 418.928 30.7947Z" fill="black"/>
<path d="M446.279 27.548L445.886 28.4335L444.115 27.8432L440.278 36.4028L442.639 34.927L450.215 31.1883L450.411 30.6964L449.034 29.8109L449.428 28.9254L454.15 31.0899L453.757 31.9754L452.281 31.5819L447.46 42.2076L448.837 42.9947L448.444 43.7817L443.721 41.6172L444.115 40.8302L445.689 41.3221L449.624 32.6641L447.46 34.0415L439.687 37.8786L439.392 38.4689L440.868 39.3544L440.475 40.1415L435.654 37.977L436.047 37.1899L437.523 37.6818L442.344 27.0561L441.065 26.269L441.458 25.3835L446.279 27.548Z" fill="black"/>
<path d="M457.594 33.156C458.184 33.2544 458.578 33.4511 458.971 33.5495C459.365 33.6479 459.758 33.8447 460.053 33.9431C461.431 34.6318 462.415 35.4189 462.907 36.3043C463.399 37.1898 463.399 38.0753 462.907 38.9608C462.415 39.8462 461.824 40.4366 460.939 40.6333C460.152 40.9285 459.266 40.9285 458.381 40.6333C459.365 41.2236 460.053 41.9123 460.349 42.6994C460.644 43.4865 460.545 44.372 460.152 45.1591C459.562 46.3397 458.676 47.1268 457.594 47.3236C456.512 47.6187 455.233 47.3236 453.56 46.5365C452.871 46.2413 452.379 45.8478 451.887 45.4543C451.395 45.0607 451.1 44.7655 450.805 44.5688C450.608 44.372 450.412 44.1752 450.313 44.0768L452.084 41.322L452.871 41.7156L452.281 44.0768C452.674 44.6672 453.363 45.1591 454.249 45.651C455.036 46.0446 455.626 46.143 456.315 45.8478C456.905 45.5526 457.495 45.0607 457.889 44.1752C458.283 43.4865 458.283 42.7978 458.184 42.1091C458.086 41.4204 457.397 40.8301 456.413 40.3382L455.233 39.7479L455.724 38.8624L456.708 39.3543C457.2 39.5511 457.692 39.7479 458.184 39.7479C458.676 39.7479 459.168 39.6495 459.66 39.3543C460.152 39.0592 460.447 38.6656 460.742 38.0753C461.136 37.2882 461.234 36.6979 460.939 36.1076C460.742 35.5173 460.25 35.1237 459.463 34.7302C458.971 34.435 458.578 34.3366 458.086 34.2382C457.692 34.1398 457.397 34.2382 457.2 34.3366L456.118 35.714L455.036 35.2221L456.216 32.5657C456.61 32.8608 457.004 32.9592 457.594 33.156Z" fill="black"/>
<path d="M471.368 41.519L470.187 40.5351L470.679 39.748L472.844 41.0271C473.237 41.2238 473.729 41.519 474.319 41.8142C474.91 42.1093 475.303 42.3061 475.5 42.4045C476.976 43.29 477.96 44.077 478.255 44.9625C478.648 45.7496 478.55 46.6351 478.058 47.5205C477.566 48.3076 476.976 48.7996 476.287 49.0947C475.598 49.3899 474.713 49.3899 473.827 49.0947C474.91 49.685 475.598 50.3737 475.893 51.2592C476.189 52.1447 476.09 52.9318 475.598 53.8173C475.008 54.8995 474.024 55.5882 472.942 55.785C471.761 55.9818 470.285 55.5882 468.515 54.6044C468.121 54.4076 467.727 54.1124 467.432 53.9156C466.645 53.4237 466.153 53.1286 465.956 53.0302L463.792 51.7512L464.284 50.9641L465.76 51.5544L471.368 41.519ZM468.908 53.7189C469.99 54.3092 470.876 54.6043 471.663 54.4076C472.45 54.2108 473.04 53.7189 473.532 52.9318C474.024 52.1447 474.123 51.3576 473.926 50.7673C473.729 50.177 473.139 49.5867 472.155 48.9963C471.073 48.406 470.384 48.0125 470.089 47.8157L467.334 52.6366C467.432 52.8334 468.023 53.1286 468.908 53.7189ZM471.564 47.3238L472.45 47.8157C473.237 48.2093 473.926 48.406 474.516 48.2093C475.106 48.0125 475.697 47.5206 476.09 46.7335C476.484 45.9464 476.681 45.3561 476.484 44.7657C476.287 44.1754 475.697 43.5851 474.811 43.0932C474.418 42.8964 474.024 42.6996 473.532 42.5029L473.139 42.3061L470.581 46.8318C470.777 46.8318 471.073 47.0286 471.564 47.3238Z" fill="black"/>
<path d="M486.027 48.7009L487.798 49.7832L484.748 63.0653L485.634 63.8524L485.142 64.6395L481.01 61.9831L481.501 61.196L482.879 61.8847L483.666 59.0315L479.042 56.0799L476.779 57.9492L478.058 58.9331L477.566 59.7202L473.827 57.3589L474.319 56.5718L475.402 57.0637L486.027 48.7009ZM485.339 51.8493L485.83 50.1767L484.551 51.3573L479.731 55.3912L483.764 57.9492L485.339 51.8493Z" fill="black"/>
<path d="M487.995 65.9187C487.503 64.8364 487.405 63.7542 487.602 62.5735C487.798 61.3929 488.29 60.2123 489.176 59.0316C489.963 57.851 490.947 57.0639 492.029 56.4736C493.111 55.8833 494.292 55.6865 495.473 55.7849C496.653 55.8833 497.735 56.2768 498.818 57.0639C499.605 57.6542 500.49 58.4413 501.376 59.4252L501.769 59.9171L499.703 62.5735L498.719 61.8848L499.703 59.622C499.605 59.4252 499.506 59.13 499.211 58.8349C498.916 58.5397 498.522 58.1462 498.031 57.851C497.342 57.3591 496.653 57.1623 495.866 57.1623C495.079 57.1623 494.292 57.4575 493.505 57.9494C492.718 58.4413 491.931 59.2284 491.242 60.2123C490.553 61.1961 490.061 62.18 489.766 63.0655C489.471 64.0493 489.471 64.9348 489.668 65.7219C489.864 66.509 490.356 67.1977 491.143 67.788C491.734 68.1815 492.127 68.3783 492.521 68.4767C492.914 68.5751 493.21 68.6735 493.505 68.5751L495.177 67.4928L496.063 68.2799L494.193 70.2477C493.997 70.1493 493.603 69.9525 493.111 69.7557C492.619 69.6573 492.226 69.4606 491.832 69.2638C491.439 69.067 490.947 68.8702 490.455 68.4767C489.274 67.8864 488.487 67.0009 487.995 65.9187Z" fill="black"/>
<path d="M508.164 67.6895C509.246 67.296 510.23 67.1976 511.214 67.296C512.198 67.3944 513.182 67.8863 513.969 68.4766C514.953 69.2637 515.543 70.0508 515.937 71.0346C516.232 72.0185 516.33 73.0024 516.035 74.0846C515.74 75.1669 515.248 76.2491 514.362 77.3313C513.477 78.512 512.395 79.3975 511.312 79.9878C510.23 80.5781 509.148 80.7749 507.967 80.6765C506.787 80.5781 505.901 80.1846 505.016 79.4959C504.032 78.7088 503.343 77.8233 502.95 76.8394C502.556 75.8556 502.556 74.8717 502.753 73.7895C503.048 72.7072 503.54 71.625 504.327 70.5427L501.966 68.6734L498.621 73.0024L499.801 74.183L499.211 74.8717L495.177 71.7233L495.767 71.0346L497.145 71.8217L504.229 62.6718L503.146 61.5896L503.737 60.8025L507.672 63.8525L507.082 64.6395L505.704 63.8525L502.654 67.7879L505.016 69.6572C506.196 68.7718 507.18 68.1815 508.164 67.6895ZM510.132 68.7718C508.951 69.1653 507.672 70.1492 506.393 71.8217C505.311 73.2975 504.622 74.5765 504.524 75.8556C504.425 77.1346 504.819 78.1184 505.803 78.9055C506.787 79.5942 507.77 79.791 508.951 79.2991C510.132 78.9055 511.312 77.8233 512.591 76.2491C513.674 74.7733 514.362 73.4943 514.461 72.2153C514.559 70.9363 514.166 69.9524 513.28 69.2637C512.395 68.575 511.312 68.3782 510.132 68.7718Z" fill="black"/>
<path d="M520.954 84.7104C520.954 85.4975 520.758 86.5797 520.561 87.8588C520.364 88.7442 520.364 89.4329 520.266 89.8265C520.266 90.22 520.266 90.6136 520.364 90.712L520.758 91.3023L520.167 91.991L518.396 90.5152C518.2 90.3184 518.101 89.9249 518.2 89.3346C518.298 88.7442 518.396 87.8588 518.593 86.7765C518.888 85.4975 518.987 84.5136 519.085 83.8249C519.183 83.1362 518.987 82.6443 518.79 82.3491L517.904 81.562L514.461 85.5959L515.543 86.8749L514.953 87.5636L511.116 84.2185L511.706 83.5298L512.985 84.4153L520.561 75.6589L519.577 74.4783L520.167 73.7896L523.906 77.0363L523.316 77.725L522.037 76.8395L518.495 80.8733L519.675 81.9556L526.07 80.3814L524.988 79.2008L525.578 78.5121L529.022 81.562L528.432 82.2507L527.153 81.4637L520.561 82.9395C520.856 83.333 520.954 83.9233 520.954 84.7104Z" fill="black"/>
<path d="M523.02 93.8601C522.824 92.8763 522.824 91.794 523.316 90.7118C523.709 89.6295 524.398 88.5473 525.382 87.5634C526.365 86.4812 527.448 85.7925 528.53 85.3989C529.711 85.0054 530.793 84.907 531.875 85.1038C532.957 85.3005 533.941 85.7925 534.827 86.6779C536.204 88.0553 536.893 89.4327 536.794 91.1053C536.696 92.6795 535.909 94.2537 534.433 95.8278C533.449 96.9101 532.367 97.5988 531.186 98.0907C530.006 98.4843 528.924 98.5827 527.743 98.3859C526.661 98.1891 525.677 97.5988 524.791 96.8117C523.807 95.8278 523.316 94.844 523.02 93.8601ZM530.891 86.3828C529.711 86.6779 528.333 87.5634 526.956 89.0392C525.677 90.4166 524.89 91.6956 524.693 92.9746C524.398 94.2537 524.791 95.2375 525.677 96.123C526.562 96.9101 527.645 97.2052 528.825 96.9101C530.104 96.6149 531.383 95.7295 532.761 94.2537C534.04 92.8763 534.827 91.5972 535.023 90.3182C535.22 89.1376 534.925 88.0553 534.04 87.1699C533.154 86.3828 532.17 86.0876 530.891 86.3828Z" fill="black"/>
<path d="M540.73 94.1555L539.844 92.8764L540.533 92.1877L542.304 93.9587C542.599 94.2539 542.993 94.6474 543.485 95.0409C543.977 95.4345 544.272 95.7296 544.469 95.9264C545.649 97.2054 546.338 98.1893 546.436 99.1732C546.535 100.157 546.24 100.846 545.551 101.633C544.961 102.223 544.173 102.617 543.386 102.715C542.599 102.813 541.812 102.617 541.025 102.026C541.911 102.912 542.304 103.699 542.402 104.683C542.501 105.568 542.107 106.355 541.419 107.044C540.533 107.93 539.451 108.323 538.27 108.225C537.09 108.126 535.811 107.339 534.335 105.863C534.04 105.568 533.745 105.175 533.449 104.88C532.761 104.191 532.367 103.699 532.269 103.601L530.498 101.83L531.187 101.239L532.367 102.223L540.73 94.1555ZM534.925 105.175C535.811 106.06 536.598 106.552 537.385 106.552C538.172 106.552 538.861 106.257 539.549 105.568C540.238 104.88 540.533 104.191 540.533 103.601C540.533 103.01 540.14 102.223 539.353 101.436C538.467 100.551 537.877 99.9602 537.68 99.7635L533.646 103.601C533.843 103.994 534.236 104.486 534.925 105.175ZM539.254 99.7635L539.943 100.551C540.533 101.141 541.222 101.436 541.812 101.436C542.501 101.436 543.091 101.141 543.78 100.452C544.37 99.8619 544.665 99.2715 544.665 98.6812C544.665 98.0909 544.272 97.4022 543.485 96.6151C543.19 96.32 542.796 96.0248 542.501 95.6313L542.206 95.3361L538.467 98.9764C538.664 99.1732 538.861 99.3699 539.254 99.7635Z" fill="black"/>
<path d="M561.391 115.013L560.702 115.603L559.522 114.521L550.765 122.097L551.749 123.573L551.061 124.163L547.617 120.129L548.306 119.539L549.486 120.621L558.341 113.045L554.406 108.52L545.551 116.194L546.535 117.67L545.846 118.26L542.403 114.324L543.091 113.734L544.174 114.718L552.93 107.142L552.044 105.765L552.733 105.175L561.391 115.013Z" fill="black"/>
<path d="M553.914 126.918C553.815 125.836 554.11 124.852 554.602 123.868C555.193 122.884 555.98 121.9 557.062 121.015C558.144 120.129 559.325 119.539 560.506 119.342C561.686 119.146 562.768 119.146 563.851 119.539C564.933 119.933 565.818 120.621 566.507 121.507C567.688 123.081 568.18 124.557 567.786 126.131C567.491 127.705 566.409 129.181 564.736 130.46C563.555 131.345 562.375 131.936 561.194 132.133C560.014 132.329 558.833 132.329 557.751 131.936C556.668 131.542 555.783 130.854 554.996 129.968C554.406 128.984 553.914 127.902 553.914 126.918ZM562.768 120.72C561.489 120.818 560.112 121.507 558.439 122.786C556.964 123.967 555.98 125.147 555.586 126.328C555.193 127.508 555.291 128.591 556.078 129.575C556.865 130.558 557.849 130.952 559.128 130.854C560.407 130.755 561.883 130.066 563.457 128.787C564.933 127.607 565.917 126.426 566.31 125.246C566.704 124.065 566.507 122.983 565.818 121.999C565.031 121.015 564.047 120.621 562.768 120.72Z" fill="black"/>
<path d="M566.704 136.363C565.13 137.15 563.851 137.642 562.867 137.74C562.375 137.74 561.883 137.74 561.588 137.544C561.194 137.347 560.899 137.15 560.604 136.757C560.21 136.265 560.014 135.871 559.915 135.576L561.096 134.592C561.194 134.887 561.489 135.281 561.883 135.773C561.981 135.97 562.178 136.068 562.375 136.166C562.572 136.265 562.768 136.265 563.064 136.265C564.835 136.166 567.589 134.789 571.23 132.132L572.41 131.247L571.328 129.378L572.115 128.787L578.412 137.544L577.625 138.134L576.444 136.855L566.999 143.644L567.885 145.218L567.097 145.71L563.752 140.987L564.539 140.495L565.818 141.971L575.263 135.182L573.099 132.132L571.722 133.116C569.951 134.592 568.278 135.576 566.704 136.363Z" fill="black"/>
<path d="M579.494 141.282L578.805 139.905L579.592 139.413L584.807 147.382L582.544 149.153L581.954 148.268L583.134 146.792L580.675 142.857L576.247 145.71L578.018 148.268L579.494 147.678L580.084 148.563L576.444 150.924L575.854 150.039L577.034 148.957L575.362 146.3L570.738 149.35L573.788 153.679L576.346 153.187L576.641 154.269L573.591 155.548L567.885 146.89L568.672 146.399L569.655 147.579L579.494 141.282Z" fill="black"/>
<path d="M587.955 154.368L586.184 151.711L582.446 153.187L581.855 152.105L586.283 149.842L592.284 159.877L588.054 162.632L587.463 161.648L590.513 159.09L588.939 156.237L578.805 162.239L579.986 164.6L579.199 165.092L575.559 158.992L576.346 158.5L577.723 160.468L587.955 154.368Z" fill="black"/>
<path d="M589.234 170.503L588.841 169.716C588.545 169.519 588.054 169.519 587.365 169.519C586.676 169.519 585.889 169.618 584.905 169.716C583.921 169.814 583.233 169.814 582.741 169.814C582.249 169.814 581.954 169.716 581.855 169.519L580.675 167.256L581.462 166.863L581.954 167.453C582.052 167.551 582.347 167.65 582.741 167.748C583.134 167.748 583.725 167.748 584.512 167.847C585.397 167.847 586.184 167.847 586.873 167.847C587.463 167.945 587.955 168.043 588.349 168.24C588.152 167.355 588.25 166.568 588.545 165.879C588.939 165.092 589.529 164.502 590.316 164.108C591.595 163.419 592.776 163.321 593.662 163.813C594.547 164.305 595.432 165.289 596.22 166.764C596.416 167.06 596.613 167.552 596.81 168.043C597.007 168.634 597.203 169.027 597.4 169.322L598.679 171.684L597.892 172.176L596.908 170.897L586.676 176.406L587.365 177.98L586.578 178.276L583.921 173.455L584.708 173.061L585.692 174.537L590.021 172.176L589.234 170.503ZM595.924 168.437C595.728 167.945 595.531 167.453 595.334 167.06C594.842 166.174 594.35 165.682 593.76 165.387C593.17 165.092 592.383 165.289 591.497 165.781C590.612 166.272 590.021 166.863 589.824 167.552C589.628 168.24 589.726 169.027 590.218 169.913C590.71 170.798 591.005 171.389 591.202 171.585L596.22 168.831L595.924 168.437Z" fill="black"/>
<path d="M600.746 177.98L599.27 175.127L595.433 176.308L594.941 175.226L599.565 173.356L604.681 183.785L600.254 186.146L599.762 185.064L603.008 182.801L601.729 179.85L591.104 184.966L592.088 187.425L591.3 187.819L588.152 181.424L588.939 181.03L590.218 183.096L600.746 177.98Z" fill="black"/>
<path d="M596.22 197.264C596.416 196.182 596.908 195.099 597.695 194.312C598.482 193.427 599.565 192.738 600.844 192.148C602.123 191.656 603.402 191.361 604.582 191.557C605.763 191.656 606.845 192.148 607.829 192.836C608.813 193.525 609.502 194.509 609.994 195.69C610.387 196.575 610.682 197.657 610.879 199.035L610.978 199.625L607.829 200.707L607.337 199.527L609.305 198.149C609.403 197.953 609.403 197.559 609.305 197.166C609.207 196.772 609.108 196.182 608.813 195.69C608.518 195.001 608.026 194.411 607.337 194.017C606.649 193.624 605.861 193.427 604.878 193.427C603.894 193.427 602.91 193.722 601.729 194.116C600.647 194.607 599.761 195.099 598.974 195.788C598.187 196.477 597.695 197.165 597.4 197.953C597.105 198.74 597.203 199.625 597.499 200.412C597.794 201.003 597.991 201.494 598.286 201.79C598.483 202.085 598.778 202.282 599.073 202.478H601.041L601.336 203.659L598.679 204.249C598.581 204.053 598.384 203.659 597.991 203.265C597.695 202.872 597.4 202.577 597.203 202.183C597.007 201.79 596.712 201.396 596.515 200.806C596.22 199.625 596.023 198.444 596.22 197.264Z" fill="black"/>
<path d="M614.126 206.512L613.241 206.807L612.355 205.135L603.5 208.382L606.157 209.07L614.224 211.825L614.716 211.628L614.323 209.956L615.208 209.661L616.979 214.482L616.094 214.777L615.405 213.498L604.484 217.532L604.878 219.106L603.992 219.401L602.221 214.482L603.107 214.186L603.894 215.662L612.847 212.415L610.289 211.825L602.123 208.972L601.533 209.169L601.926 210.841L601.041 211.136L599.27 206.217L600.155 205.922L600.844 207.299L611.765 203.266L611.47 201.79L612.355 201.495L614.126 206.512Z" fill="black"/>
<path d="M620.619 225.796L615.995 227.37L615.602 226.19L619.045 224.517L617.963 220.582L606.747 224.124L607.534 227.272L606.649 227.567L604.386 220.582L605.271 220.287L606.058 222.156L617.078 218.614L616.684 216.646L617.57 216.351L620.619 225.796Z" fill="black"/>
<path d="M620.423 229.24L620.226 227.764L621.111 227.567L622.39 232.486L621.505 232.683L620.915 231.207L616.094 232.486L617.766 238.882L622.587 237.603L622.39 236.127L623.276 235.93L624.555 240.751L623.669 240.948L623.079 239.57L611.863 242.62L612.06 244.096L611.174 244.293L609.895 239.472L610.781 239.275L611.371 240.751L616.586 239.373L614.913 232.978L609.699 234.356L609.895 235.93L609.01 236.127L607.633 231.207L608.518 231.011L609.108 232.388L620.423 229.24Z" fill="black"/>
<path d="M626.326 247.244L626.818 249.212L615.208 256.394L615.307 257.575L614.421 257.772L613.339 252.951L614.224 252.754L614.716 254.23L617.274 252.754L616.094 247.441L613.24 247.146L613.437 248.72L612.552 248.917L611.568 244.588L612.453 244.391L612.847 245.473L626.326 247.244ZM623.669 249.114L625.145 248.327L623.374 248.228L617.077 247.638L618.061 252.262L623.669 249.114Z" fill="black"/>
<path d="M620.226 261.707C618.455 261.707 617.176 261.609 616.192 261.215C615.7 261.018 615.307 260.821 615.11 260.526C614.815 260.231 614.716 259.838 614.618 259.444C614.519 258.854 614.421 258.46 614.52 258.165L615.995 257.771C615.995 258.067 616.094 258.559 616.192 259.149C616.192 259.346 616.29 259.542 616.487 259.739C616.586 259.936 616.782 260.034 617.078 260.133C618.652 260.821 621.8 260.723 626.227 259.936L627.703 259.641L627.506 257.476L628.392 257.28L630.261 267.905L629.376 268.102L628.884 266.429L617.471 268.397L617.569 270.267L616.684 270.463L615.7 264.757L616.586 264.56L617.078 266.429L628.49 264.462L627.802 260.723L626.129 261.018C623.866 261.412 621.898 261.609 620.226 261.707Z" fill="black"/>
<path d="M625.932 276.662C626.129 278.137 625.932 279.417 625.244 280.302C624.653 281.187 623.67 281.679 622.391 281.876C621.013 282.073 619.832 281.679 618.947 280.892C618.062 280.105 617.57 278.925 617.373 277.449C617.373 277.252 617.373 277.055 617.274 276.858C617.176 276.662 617.274 276.465 617.274 276.17C617.274 275.481 617.176 274.792 617.176 274.202L616.881 271.644L617.766 271.546L618.16 273.12L629.769 271.742L629.868 270.168L630.753 270.07L631.344 275.383L630.458 275.481L629.868 273.71L625.539 274.202L625.932 276.662ZM618.258 275.973C618.258 276.17 618.258 276.563 618.357 276.957C618.455 278.039 618.849 278.728 619.537 279.22C620.226 279.712 621.013 279.908 622.095 279.712C623.079 279.613 623.866 279.22 624.26 278.629C624.752 278.039 624.85 277.252 624.752 276.17L624.555 274.3L618.258 275.088C618.258 275.481 618.258 275.776 618.258 275.973ZM632.721 287.681L631.836 287.779L631.442 286.107L619.931 287.484V289.255L619.045 289.354L618.357 283.942L619.242 283.844L619.636 285.516L631.147 284.139V282.368L632.032 282.27L632.721 287.681Z" fill="black"/>
<path d="M632.131 296.339L632.328 294.863H633.213L633.41 299.979H632.524L632.229 298.405L627.211 298.602L627.507 305.194L632.524 304.997L632.721 303.521H633.607L633.803 308.539H632.918L632.623 307.063L621.013 307.653L620.915 309.129H620.029L619.832 304.111H620.718L621.013 305.587L626.424 305.292L626.129 298.7L620.718 298.995L620.62 300.668H619.734L619.537 295.552H620.423L620.718 297.028L632.131 296.339Z" fill="black"/>
<path d="M634 315.032V317.098L621.21 321.821L621.013 323.002H620.127L620.029 318.082H620.915L621.111 319.656L623.866 318.771L623.768 313.36L621.013 312.573L620.816 314.147H619.931L619.832 309.719H620.718L620.915 310.9L634 315.032ZM631.048 316.213L632.721 315.721L631.048 315.327L625.047 313.557L625.145 318.279L631.048 316.213Z" fill="black"/>
<path d="M632.524 330.872L632.918 328.806L633.803 328.905L633.508 333.824L624.948 335.89L622.587 336.382L624.948 337.071L633.213 340.219L632.918 345.138L632.032 345.04L631.934 342.974L620.226 343.761L619.931 345.335L619.045 345.237L619.34 339.826L620.226 339.924L620.324 341.597L628.785 341.301L632.426 341.105L629.769 340.121L620.226 336.382L620.324 335.201L629.474 332.742L633.114 331.856L629.474 331.266L621.111 329.987L620.816 331.856L619.931 331.758L620.226 326.937L621.111 327.035L621.21 328.61L632.524 330.872Z" fill="black"/>
<path d="M632.131 352.32L631.934 354.386L618.652 357.436L618.357 358.519L617.471 358.42L618.061 353.501L618.947 353.599V355.174L621.8 354.583L622.39 349.172L619.734 347.991L619.34 349.566L618.455 349.467L618.947 345.04L619.832 345.138L619.931 346.319L632.131 352.32ZM628.982 353.107L630.655 352.812L629.081 352.222L623.374 349.664L622.882 354.386L628.982 353.107Z" fill="black"/>
<path d="M629.573 362.356L630.065 360.978L630.95 361.077L630.557 363.536C630.458 364.028 630.458 364.422 630.36 364.816C630.261 365.504 630.261 366.095 630.163 366.685C629.868 368.456 629.376 369.636 628.589 370.325C627.802 370.915 626.818 371.211 625.44 371.014C624.457 370.817 623.669 370.522 622.981 369.932C622.292 369.341 621.899 368.653 621.603 367.767C621.308 366.882 621.308 365.898 621.505 364.914C621.603 364.52 621.603 364.225 621.702 363.832C621.8 363.438 621.8 363.241 621.899 363.143L617.865 362.553L617.274 365.012L616.389 364.914L617.373 358.912L618.258 359.011L618.16 360.585L629.573 362.356ZM622.489 365.111C622.292 366.095 622.489 366.882 622.981 367.669C623.473 368.456 624.358 368.849 625.736 369.046C626.818 369.243 627.605 369.046 628.097 368.653C628.687 368.161 628.982 367.374 629.179 366.291C629.277 365.898 629.278 365.504 629.278 365.012C629.278 364.717 629.278 364.52 629.278 364.422L622.686 363.438C622.686 363.733 622.587 364.324 622.489 365.111Z" fill="black"/>
<path d="M615.503 373.474C616.291 372.686 617.274 372.096 618.357 371.801C619.537 371.506 620.816 371.506 622.194 371.801C623.571 372.096 624.752 372.588 625.637 373.375C626.621 374.162 627.211 375.146 627.605 376.228C627.998 377.311 628.097 378.491 627.802 379.77C627.605 380.754 627.211 381.836 626.719 383.115L626.523 383.706L623.276 382.919L623.473 381.738H625.932C626.129 381.64 626.326 381.344 626.523 380.951C626.719 380.557 626.818 380.065 627.015 379.475C627.211 378.688 627.113 377.999 626.719 377.212C626.424 376.523 625.834 375.933 625.047 375.343C624.26 374.851 623.276 374.457 621.997 374.162C620.816 373.965 619.734 373.867 618.75 373.965C617.766 374.064 616.881 374.359 616.192 374.949C615.503 375.441 615.11 376.13 614.913 377.114C614.815 377.803 614.716 378.294 614.815 378.688C614.815 379.082 614.913 379.377 615.11 379.672L616.782 380.754L616.389 381.836L613.831 380.852C613.831 380.557 613.831 380.164 613.831 379.672C613.831 379.18 613.732 378.786 613.732 378.294C613.732 377.901 613.831 377.311 613.929 376.72C614.224 375.441 614.716 374.359 615.503 373.474Z" fill="black"/>
<path d="M622.981 399.939L622.095 399.644L622.39 397.775L613.339 395.315L615.11 397.381L620.029 404.367L620.521 404.465L621.21 402.891L622.095 403.186L620.718 408.106L619.832 407.81L620.029 406.335L608.813 403.285L608.223 404.76L607.337 404.564L608.715 399.546L609.6 399.743L609.305 401.415L618.455 403.973L616.684 402.104L611.765 395.02L611.076 394.823L610.387 396.496L609.502 396.299L610.879 391.183L611.765 391.38L611.568 392.954L622.784 396.004L623.374 394.627L624.26 394.922L622.981 399.939Z" fill="black"/>
<path d="M619.242 411.942C619.144 412.533 619.144 413.025 619.045 413.418C618.947 413.812 618.848 414.205 618.75 414.501C618.258 415.976 617.668 417.059 616.881 417.649C616.094 418.239 615.208 418.436 614.224 418.141C613.24 417.846 612.65 417.255 612.256 416.468C611.863 415.681 611.765 414.894 611.863 413.91C611.469 414.992 610.879 415.78 610.092 416.173C609.305 416.567 608.518 416.665 607.632 416.37C606.353 415.976 605.468 415.288 605.074 414.205C604.681 413.221 604.681 411.844 605.271 410.073C605.468 409.384 605.763 408.794 606.058 408.204C606.353 407.712 606.648 407.318 606.845 407.023C607.042 406.728 607.14 406.531 607.239 406.531L610.19 407.81L609.895 408.696L607.436 408.401C606.944 408.893 606.55 409.581 606.157 410.663C605.861 411.451 605.96 412.139 606.255 412.73C606.55 413.32 607.239 413.713 608.223 414.009C608.911 414.205 609.6 414.205 610.289 413.91C610.977 413.615 611.469 412.926 611.765 411.942L612.158 410.663L613.142 410.959L612.847 411.942C612.65 412.434 612.65 412.926 612.65 413.418C612.748 413.91 612.945 414.402 613.24 414.796C613.536 415.189 614.027 415.484 614.618 415.681C615.405 415.976 616.094 415.878 616.586 415.583C617.077 415.288 617.471 414.697 617.766 413.91C617.963 413.418 618.061 412.926 617.963 412.533C617.963 412.139 617.864 411.844 617.668 411.647L616.094 410.762L616.487 409.68L619.242 410.368C619.34 410.959 619.242 411.352 619.242 411.942Z" fill="black"/>
<path d="M613.142 426.996L613.929 425.618L614.815 425.913L613.929 428.275C613.733 428.668 613.634 429.16 613.437 429.849C613.241 430.439 613.142 430.833 613.044 431.128C612.454 432.702 611.765 433.784 610.978 434.276C610.191 434.768 609.305 434.867 608.42 434.473C607.633 434.178 606.944 433.686 606.55 432.899C606.157 432.21 606.058 431.423 606.157 430.538C605.763 431.62 605.173 432.407 604.386 432.899C603.599 433.292 602.713 433.391 601.828 432.997C600.647 432.505 599.86 431.718 599.467 430.636C599.073 429.554 599.171 427.98 599.958 426.11C600.155 425.717 600.254 425.323 600.45 424.93C600.844 424.044 601.041 423.454 601.139 423.355L602.025 420.994L602.91 421.289L602.517 422.765L613.142 426.996ZM600.647 426.405C600.155 427.586 600.155 428.57 600.352 429.259C600.549 429.947 601.238 430.538 602.123 430.833C603.008 431.226 603.796 431.226 604.386 430.931C604.976 430.636 605.468 429.947 605.862 428.963C606.354 427.783 606.55 426.996 606.649 426.701L601.434 424.733C601.336 424.831 601.041 425.422 600.647 426.405ZM607.337 427.98L606.944 428.963C606.649 429.75 606.649 430.439 606.944 431.03C607.239 431.62 607.829 432.112 608.616 432.407C609.404 432.702 610.092 432.702 610.683 432.505C611.175 432.21 611.666 431.62 612.06 430.538C612.257 430.144 612.355 429.652 612.454 429.259L612.552 428.865L607.731 426.996C607.731 427.192 607.534 427.488 607.337 427.98Z" fill="black"/>
<path d="M608.223 442.54L607.436 444.41L593.76 443.426L593.17 444.41L592.284 444.016L594.252 439.491L595.137 439.884L594.645 441.36L597.499 441.655L599.663 436.637L597.499 434.768L596.712 436.145L595.826 435.752L597.597 431.718L598.482 432.112L598.187 433.292L608.223 442.54ZM604.976 442.344L606.649 442.54L605.271 441.458L600.549 437.326L598.679 441.655L604.976 442.344Z" fill="black"/>
<path d="M591.497 447.165C592.481 446.574 593.563 446.279 594.744 446.279C595.925 446.279 597.204 446.673 598.483 447.263C599.762 447.853 600.746 448.641 601.434 449.624C602.123 450.608 602.516 451.69 602.615 452.871C602.713 454.052 602.418 455.232 601.926 456.315C601.533 457.2 600.844 458.184 600.057 459.266L599.663 459.758L596.712 458.086L597.302 457.003L599.663 457.594C599.86 457.495 600.155 457.299 600.45 456.905C600.746 456.61 601.041 456.118 601.237 455.528C601.631 454.839 601.729 454.052 601.533 453.265C601.434 452.478 601.041 451.789 600.352 451.1C599.663 450.411 598.876 449.723 597.696 449.231C596.613 448.739 595.629 448.345 594.646 448.247C593.662 448.149 592.776 448.247 591.989 448.542C591.202 448.837 590.612 449.428 590.218 450.313C589.923 450.903 589.726 451.395 589.726 451.789C589.628 452.182 589.726 452.478 589.726 452.773L591.005 454.249L590.317 455.232L588.152 453.658C588.25 453.461 588.349 453.068 588.447 452.478C588.546 451.986 588.644 451.592 588.742 451.199C588.841 450.805 589.038 450.313 589.333 449.723C589.726 448.739 590.513 447.755 591.497 447.165Z" fill="black"/>
<path d="M592.875 467.432C593.465 468.416 593.76 469.4 593.76 470.384C593.76 471.368 593.563 472.352 592.973 473.237C592.383 474.319 591.595 475.106 590.71 475.598C589.825 476.09 588.742 476.287 587.66 476.189C586.578 476.09 585.397 475.697 584.216 475.106C582.937 474.418 581.855 473.532 581.167 472.45C580.478 471.466 579.986 470.384 579.986 469.302C579.888 468.219 580.183 467.137 580.675 466.153C581.265 465.071 582.052 464.284 582.937 463.694C583.823 463.202 584.905 463.005 585.987 463.103C587.07 463.202 588.25 463.595 589.431 464.186L590.907 461.529L586.086 458.873L585.102 460.152L584.315 459.66L586.775 455.134L587.562 455.528L586.971 457.003L597.105 462.611L597.991 461.431L598.778 461.923L596.318 466.35L595.531 465.858L596.121 464.382L591.694 461.923L590.218 464.579C591.497 465.563 592.284 466.448 592.875 467.432ZM592.186 469.4C591.595 468.318 590.415 467.236 588.644 466.252C587.07 465.366 585.594 464.973 584.315 465.071C583.036 465.169 582.052 465.76 581.462 466.842C580.871 467.924 580.871 468.908 581.462 469.99C582.052 471.073 583.233 472.155 585.102 473.139C586.676 474.024 588.054 474.418 589.333 474.418C590.612 474.418 591.497 473.827 592.087 472.745C592.678 471.663 592.678 470.581 592.186 469.4Z" fill="black"/>
<path d="M578.018 482.584C577.231 482.682 576.149 482.682 574.87 482.682C573.984 482.682 573.296 482.682 572.804 482.682C572.41 482.682 572.115 482.78 571.918 482.977L571.328 483.469L570.541 482.977L571.722 481.01C571.918 480.813 572.214 480.616 572.902 480.616C573.493 480.616 574.378 480.616 575.559 480.616C576.838 480.714 577.822 480.714 578.609 480.616C579.297 480.616 579.789 480.419 579.986 480.026L580.576 479.042L576.051 476.189L574.968 477.468L574.181 476.976L576.936 472.647L577.723 473.139L577.034 474.516L586.873 480.714L587.857 479.534L588.644 480.026L585.988 484.256L585.201 483.764L585.791 482.289L581.265 479.435L580.38 480.813L582.938 486.913L583.921 485.732L584.709 486.224L582.249 490.159L581.462 489.668L582.052 488.29L579.593 481.993C579.494 482.289 578.805 482.485 578.018 482.584Z" fill="black"/>
<path d="M569.36 486.126C570.344 485.732 571.426 485.634 572.509 485.929C573.689 486.126 574.772 486.716 575.952 487.503C577.133 488.29 578.018 489.274 578.609 490.356C579.199 491.439 579.494 492.521 579.396 493.603C579.297 494.685 579.002 495.768 578.313 496.751C577.231 498.326 575.854 499.211 574.28 499.408C572.705 499.605 571.033 499.014 569.164 497.834C567.983 497.047 567.097 496.063 566.507 494.98C565.917 493.898 565.622 492.816 565.72 491.635C565.72 490.455 566.114 489.471 566.802 488.487C567.491 487.208 568.376 486.519 569.36 486.126ZM577.92 492.718C577.428 491.537 576.346 490.356 574.673 489.274C573.099 488.192 571.722 487.7 570.443 487.602C569.164 487.503 568.18 487.995 567.491 488.979C566.802 489.963 566.704 491.045 567.196 492.226C567.688 493.406 568.77 494.587 570.443 495.768C572.017 496.85 573.394 497.342 574.673 497.44C575.952 497.44 576.936 496.948 577.625 495.964C578.314 494.98 578.412 493.898 577.92 492.718Z" fill="black"/>
<path d="M571.82 503.54L572.902 502.458L573.689 503.048L572.214 505.016C571.918 505.311 571.623 505.803 571.328 506.393C571.033 506.885 570.738 507.279 570.541 507.475C569.459 508.853 568.573 509.64 567.688 509.935C566.802 510.23 565.917 510.033 565.13 509.443C564.441 508.951 563.949 508.263 563.752 507.475C563.556 506.688 563.654 505.901 564.047 505.114C563.359 506.098 562.572 506.688 561.686 506.885C560.801 507.082 559.915 506.885 559.128 506.295C558.144 505.508 557.554 504.524 557.456 503.343C557.357 502.163 557.948 500.687 559.128 499.113C559.423 498.719 559.719 498.424 559.915 498.129C560.506 497.342 560.899 496.948 560.998 496.751L562.473 494.784L563.162 495.374L562.375 496.751L571.82 503.54ZM560.014 499.605C559.227 500.588 558.931 501.474 559.03 502.261C559.128 503.048 559.522 503.737 560.309 504.327C561.096 504.917 561.785 505.114 562.473 505.016C563.162 504.917 563.752 504.425 564.441 503.54C565.228 502.556 565.72 501.867 565.818 501.572L561.391 498.227C560.998 498.227 560.604 498.719 560.014 499.605ZM566.015 502.95L565.425 503.737C564.933 504.426 564.736 505.114 564.835 505.803C564.933 506.492 565.327 507.082 566.114 507.574C566.802 508.066 567.491 508.263 568.081 508.164C568.672 508.066 569.262 507.574 569.951 506.688C570.246 506.295 570.443 505.901 570.738 505.508L570.934 505.213L566.802 502.064C566.507 502.261 566.31 502.556 566.015 502.95Z" fill="black"/>
<circle cx="50.1646" cy="158.823" r="2" transform="rotate(-15 50.1646 158.823)" fill="black"/>
<circle cx="434.247" cy="29.3749" r="2" transform="rotate(-15 434.247 29.3749)" fill="black"/>
</g>
</svg>
